<svg width="100%" height="100%" viewBox="0 0 17 17" fill="none" xmlns="http://www.w3.org/2000/svg">
<path d="M8.55776 16.258C8.42443 16.258 8.29943 16.237 8.18276 16.195C8.0661 16.1537 7.95776 16.083 7.85776 15.983L1.25776 9.38304C1.05776 9.18304 0.957764 8.94538 0.957764 8.67004C0.957764 8.39538 1.05776 8.15804 1.25776 7.95804C1.45776 7.75804 1.6911 7.65804 1.95776 7.65804C2.22443 7.65804 2.45776 7.75804 2.65776 7.95804L7.55776 12.858V1.65804C7.55776 1.37471 7.65376 1.14138 7.84576 0.958045C8.0371 0.774711 8.27443 0.683044 8.55776 0.683044C8.8411 0.683044 9.07876 0.778711 9.27076 0.970045C9.4621 1.16204 9.55776 1.39971 9.55776 1.68304V12.858L14.4578 7.95804C14.6578 7.75804 14.8911 7.65804 15.1578 7.65804C15.4244 7.65804 15.6578 7.75804 15.8578 7.95804C16.0578 8.15804 16.1578 8.39538 16.1578 8.67004C16.1578 8.94538 16.0578 9.18304 15.8578 9.38304L9.25776 15.983C9.15776 16.083 9.04943 16.1537 8.93276 16.195C8.8161 16.237 8.6911 16.258 8.55776 16.258Z" fill="#1C1246"/>
</svg>
