<svg width="100%" height="100%" viewBox="0 0 24 24" fill="none" xmlns="http://www.w3.org/2000/svg">
<path d="M10.32 14.1571L7.71 11.5471C7.49 11.3271 7.22 11.2171 6.9 11.2171C6.58 11.2171 6.3 11.3371 6.06 11.5771C5.84 11.7971 5.73 12.0771 5.73 12.4171C5.73 12.7571 5.84 13.0371 6.06 13.2571L9.48 16.6771C9.7 16.8971 9.98 17.0071 10.32 17.0071C10.66 17.0071 10.94 16.8971 11.16 16.6771L17.97 9.86707C18.19 9.64707 18.3 9.37707 18.3 9.05707C18.3 8.73707 18.18 8.45707 17.94 8.21707C17.72 7.99707 17.44 7.88707 17.1 7.88707C16.76 7.88707 16.48 7.99707 16.26 8.21707L10.32 14.1571ZM12 23.9971C10.34 23.9971 8.78 23.6819 7.32 23.0515C5.86 22.4219 4.59 21.5671 3.51 20.4871C2.43 19.4071 1.5752 18.1371 0.9456 16.6771C0.3152 15.2171 0 13.6571 0 11.9971C0 10.3371 0.3152 8.77707 0.9456 7.31707C1.5752 5.85707 2.43 4.58707 3.51 3.50707C4.59 2.42707 5.86 1.57187 7.32 0.94147C8.78 0.31187 10.34 -0.00292969 12 -0.00292969C13.66 -0.00292969 15.22 0.31187 16.68 0.94147C18.14 1.57187 19.41 2.42707 20.49 3.50707C21.57 4.58707 22.4248 5.85707 23.0544 7.31707C23.6848 8.77707 24 10.3371 24 11.9971C24 13.6571 23.6848 15.2171 23.0544 16.6771C22.4248 18.1371 21.57 19.4071 20.49 20.4871C19.41 21.5671 18.14 22.4219 16.68 23.0515C15.22 23.6819 13.66 23.9971 12 23.9971Z" fill="#F46201"/>
</svg>
