<?xml version="1.0" encoding="utf-8"?>
<svg version="1.1" xmlns="http://www.w3.org/2000/svg" xmlns:xlink="http://www.w3.org/1999/xlink" x="0px" y="0px" width="100%"
	 height="100%" viewBox="0 0 474 474" style="enable-background:new 0 0 474 474;" xml:space="preserve">
<style type="text/css">
	.st0{fill:none;stroke:#EC008C;stroke-width:9.48;}
	.st1{fill:none;stroke:#000000;stroke-width:9.48;}
</style>
<g id="path">
	<polyline class="st0" points="23.2,0 23.2,150.4 23.2,209 69.7,209 69.7,255.5 301.9,255.5 301.9,301.9 348.4,301.9 394.8,301.9 
		394.8,394.8 441.3,394.8 441.3,464.5 	"/>
</g>
<g id="illinois">
	<g class="the-rest">
		<line class="st1" x1="-4.7" y1="0" x2="51.2" y2="0"/>
		<line class="st1" x1="46.5" y1="-4.7" x2="46.5" y2="51.2"/>
		<line class="st1" x1="0" y1="51.2" x2="0" y2="-4.7"/>
		<line class="st1" x1="41.7" y1="0" x2="97.6" y2="0"/>
		<line class="st1" x1="46.5" y1="51.2" x2="46.5" y2="-4.7"/>
		<line class="st1" x1="88.2" y1="0" x2="144.1" y2="0"/>
		<line class="st1" x1="144.1" y1="46.5" x2="88.2" y2="46.5"/>
		<line class="st1" x1="134.6" y1="0" x2="190.5" y2="0"/>
		<line class="st1" x1="190.5" y1="46.5" x2="134.6" y2="46.5"/>
		<line class="st1" x1="181.1" y1="0" x2="237" y2="0"/>
		<line class="st1" x1="232.3" y1="-4.7" x2="232.3" y2="51.2"/>
		<line class="st1" x1="237" y1="46.5" x2="181.1" y2="46.5"/>
		<line class="st1" x1="227.5" y1="0" x2="283.5" y2="0"/>
		<line class="st1" x1="232.3" y1="51.2" x2="232.3" y2="-4.7"/>
		<line class="st1" x1="274" y1="0" x2="329.9" y2="0"/>
		<line class="st1" x1="329.9" y1="46.5" x2="274" y2="46.5"/>
		<line class="st1" x1="320.4" y1="0" x2="376.4" y2="0"/>
		<line class="st1" x1="376.4" y1="46.5" x2="320.4" y2="46.5"/>
		<line class="st1" x1="366.9" y1="0" x2="422.8" y2="0"/>
		<line class="st1" x1="413.3" y1="0" x2="469.3" y2="0"/>
		<line class="st1" x1="464.5" y1="-4.7" x2="464.5" y2="51.2"/>
		<line class="st1" x1="469.3" y1="46.5" x2="413.3" y2="46.5"/>
		<line class="st1" x1="46.5" y1="41.7" x2="46.5" y2="97.6"/>
		<line class="st1" x1="0" y1="97.6" x2="0" y2="41.7"/>
		<line class="st1" x1="46.5" y1="97.6" x2="46.5" y2="41.7"/>
		<line class="st1" x1="88.2" y1="46.5" x2="144.1" y2="46.5"/>
		<line class="st1" x1="139.4" y1="41.7" x2="139.4" y2="97.6"/>
		<line class="st1" x1="134.6" y1="46.5" x2="190.5" y2="46.5"/>
		<line class="st1" x1="139.4" y1="97.6" x2="139.4" y2="41.7"/>
		<line class="st1" x1="181.1" y1="46.5" x2="237" y2="46.5"/>
		<line class="st1" x1="237" y1="92.9" x2="181.1" y2="92.9"/>
		<line class="st1" x1="283.5" y1="92.9" x2="227.5" y2="92.9"/>
		<line class="st1" x1="274" y1="46.5" x2="329.9" y2="46.5"/>
		<line class="st1" x1="329.9" y1="92.9" x2="274" y2="92.9"/>
		<line class="st1" x1="320.4" y1="46.5" x2="376.4" y2="46.5"/>
		<line class="st1" x1="371.6" y1="41.7" x2="371.6" y2="97.6"/>
		<line class="st1" x1="376.4" y1="92.9" x2="320.4" y2="92.9"/>
		<line class="st1" x1="371.6" y1="97.6" x2="371.6" y2="41.7"/>
		<line class="st1" x1="413.3" y1="46.5" x2="469.3" y2="46.5"/>
		<line class="st1" x1="464.5" y1="41.7" x2="464.5" y2="97.6"/>
		<line class="st1" x1="46.5" y1="88.2" x2="46.5" y2="144.1"/>
		<line class="st1" x1="0" y1="144.1" x2="0" y2="88.2"/>
		<line class="st1" x1="92.9" y1="88.2" x2="92.9" y2="144.1"/>
		<line class="st1" x1="46.5" y1="144.1" x2="46.5" y2="88.2"/>
		<line class="st1" x1="139.4" y1="88.2" x2="139.4" y2="144.1"/>
		<line class="st1" x1="92.9" y1="144.1" x2="92.9" y2="88.2"/>
		<line class="st1" x1="185.8" y1="88.2" x2="185.8" y2="144.1"/>
		<line class="st1" x1="139.4" y1="144.1" x2="139.4" y2="88.2"/>
		<line class="st1" x1="181.1" y1="92.9" x2="237" y2="92.9"/>
		<line class="st1" x1="237" y1="139.4" x2="181.1" y2="139.4"/>
		<line class="st1" x1="185.8" y1="144.1" x2="185.8" y2="88.2"/>
		<line class="st1" x1="227.5" y1="92.9" x2="283.5" y2="92.9"/>
		<line class="st1" x1="278.7" y1="88.2" x2="278.7" y2="144.1"/>
		<line class="st1" x1="274" y1="92.9" x2="329.9" y2="92.9"/>
		<line class="st1" x1="278.7" y1="144.1" x2="278.7" y2="88.2"/>
		<line class="st1" x1="320.4" y1="92.9" x2="376.4" y2="92.9"/>
		<line class="st1" x1="371.6" y1="88.2" x2="371.6" y2="144.1"/>
		<line class="st1" x1="418.1" y1="88.2" x2="418.1" y2="144.1"/>
		<line class="st1" x1="371.6" y1="144.1" x2="371.6" y2="88.2"/>
		<line class="st1" x1="464.5" y1="88.2" x2="464.5" y2="144.1"/>
		<line class="st1" x1="418.1" y1="144.1" x2="418.1" y2="88.2"/>
		<line class="st1" x1="46.5" y1="134.6" x2="46.5" y2="190.5"/>
		<line class="st1" x1="0" y1="190.5" x2="0" y2="134.6"/>
		<line class="st1" x1="92.9" y1="134.6" x2="92.9" y2="190.5"/>
		<line class="st1" x1="97.6" y1="185.8" x2="41.7" y2="185.8"/>
		<line class="st1" x1="46.5" y1="190.5" x2="46.5" y2="134.6"/>
		<line class="st1" x1="92.9" y1="190.5" x2="92.9" y2="134.6"/>
		<line class="st1" x1="185.8" y1="134.6" x2="185.8" y2="190.5"/>
		<line class="st1" x1="190.5" y1="185.8" x2="134.6" y2="185.8"/>
		<line class="st1" x1="181.1" y1="139.4" x2="237" y2="139.4"/>
		<line class="st1" x1="185.8" y1="190.5" x2="185.8" y2="134.6"/>
		<line class="st1" x1="278.7" y1="134.6" x2="278.7" y2="190.5"/>
		<line class="st1" x1="283.5" y1="185.8" x2="227.5" y2="185.8"/>
		<line class="st1" x1="325.2" y1="134.6" x2="325.2" y2="190.5"/>
		<line class="st1" x1="278.7" y1="190.5" x2="278.7" y2="134.6"/>
		<line class="st1" x1="371.6" y1="134.6" x2="371.6" y2="190.5"/>
		<line class="st1" x1="325.2" y1="190.5" x2="325.2" y2="134.6"/>
		<line class="st1" x1="418.1" y1="134.6" x2="418.1" y2="190.5"/>
		<line class="st1" x1="422.8" y1="185.8" x2="366.9" y2="185.8"/>
		<line class="st1" x1="371.6" y1="190.5" x2="371.6" y2="134.6"/>
		<line class="st1" x1="464.5" y1="134.6" x2="464.5" y2="190.5"/>
		<line class="st1" x1="418.1" y1="190.5" x2="418.1" y2="134.6"/>
		<line class="st1" x1="51.2" y1="232.3" x2="-4.7" y2="232.3"/>
		<line class="st1" x1="0" y1="237" x2="0" y2="181.1"/>
		<line class="st1" x1="41.7" y1="185.8" x2="97.6" y2="185.8"/>
		<line class="st1" x1="92.9" y1="181.1" x2="92.9" y2="237"/>
		<line class="st1" x1="92.9" y1="237" x2="92.9" y2="181.1"/>
		<line class="st1" x1="134.6" y1="185.8" x2="190.5" y2="185.8"/>
		<line class="st1" x1="190.5" y1="232.3" x2="134.6" y2="232.3"/>
		<line class="st1" x1="232.3" y1="181.1" x2="232.3" y2="237"/>
		<line class="st1" x1="237" y1="232.3" x2="181.1" y2="232.3"/>
		<line class="st1" x1="227.5" y1="185.8" x2="283.5" y2="185.8"/>
		<line class="st1" x1="232.3" y1="237" x2="232.3" y2="181.1"/>
		<line class="st1" x1="325.2" y1="181.1" x2="325.2" y2="237"/>
		<line class="st1" x1="329.9" y1="232.3" x2="274" y2="232.3"/>
		<line class="st1" x1="371.6" y1="181.1" x2="371.6" y2="237"/>
		<line class="st1" x1="325.2" y1="237" x2="325.2" y2="181.1"/>
		<line class="st1" x1="366.9" y1="185.8" x2="422.8" y2="185.8"/>
		<line class="st1" x1="371.6" y1="237" x2="371.6" y2="181.1"/>
		<line class="st1" x1="464.5" y1="181.1" x2="464.5" y2="237"/>
		<line class="st1" x1="469.3" y1="232.3" x2="413.3" y2="232.3"/>
		<line class="st1" x1="-4.7" y1="232.3" x2="51.2" y2="232.3"/>
		<line class="st1" x1="46.5" y1="227.5" x2="46.5" y2="283.5"/>
		<line class="st1" x1="0" y1="283.5" x2="0" y2="227.5"/>
		<line class="st1" x1="92.9" y1="227.5" x2="92.9" y2="283.5"/>
		<line class="st1" x1="46.5" y1="283.5" x2="46.5" y2="227.5"/>
		<line class="st1" x1="92.9" y1="283.5" x2="92.9" y2="227.5"/>
		<line class="st1" x1="134.6" y1="232.3" x2="190.5" y2="232.3"/>
		<line class="st1" x1="181.1" y1="232.3" x2="237" y2="232.3"/>
		<line class="st1" x1="237" y1="278.7" x2="181.1" y2="278.7"/>
		<line class="st1" x1="278.7" y1="227.5" x2="278.7" y2="283.5"/>
		<line class="st1" x1="283.5" y1="278.7" x2="227.5" y2="278.7"/>
		<line class="st1" x1="274" y1="232.3" x2="329.9" y2="232.3"/>
		<line class="st1" x1="325.2" y1="227.5" x2="325.2" y2="283.5"/>
		<line class="st1" x1="278.7" y1="283.5" x2="278.7" y2="227.5"/>
		<line class="st1" x1="371.6" y1="227.5" x2="371.6" y2="283.5"/>
		<line class="st1" x1="325.2" y1="283.5" x2="325.2" y2="227.5"/>
		<line class="st1" x1="422.8" y1="278.7" x2="366.9" y2="278.7"/>
		<line class="st1" x1="371.6" y1="283.5" x2="371.6" y2="227.5"/>
		<line class="st1" x1="413.3" y1="232.3" x2="469.3" y2="232.3"/>
		<line class="st1" x1="464.5" y1="227.5" x2="464.5" y2="283.5"/>
		<line class="st1" x1="46.5" y1="274" x2="46.5" y2="329.9"/>
		<line class="st1" x1="0" y1="329.9" x2="0" y2="274"/>
		<line class="st1" x1="92.9" y1="274" x2="92.9" y2="329.9"/>
		<line class="st1" x1="46.5" y1="329.9" x2="46.5" y2="274"/>
		<line class="st1" x1="139.4" y1="274" x2="139.4" y2="329.9"/>
		<line class="st1" x1="144.1" y1="325.2" x2="88.2" y2="325.2"/>
		<line class="st1" x1="92.9" y1="329.9" x2="92.9" y2="274"/>
		<line class="st1" x1="185.8" y1="274" x2="185.8" y2="329.9"/>
		<line class="st1" x1="139.4" y1="329.9" x2="139.4" y2="274"/>
		<line class="st1" x1="181.1" y1="278.7" x2="237" y2="278.7"/>
		<line class="st1" x1="185.8" y1="329.9" x2="185.8" y2="274"/>
		<line class="st1" x1="227.5" y1="278.7" x2="283.5" y2="278.7"/>
		<line class="st1" x1="278.7" y1="274" x2="278.7" y2="329.9"/>
		<line class="st1" x1="283.5" y1="325.2" x2="227.5" y2="325.2"/>
		<line class="st1" x1="278.7" y1="329.9" x2="278.7" y2="274"/>
		<line class="st1" x1="371.6" y1="274" x2="371.6" y2="329.9"/>
		<line class="st1" x1="376.4" y1="325.2" x2="320.4" y2="325.2"/>
		<line class="st1" x1="366.9" y1="278.7" x2="422.8" y2="278.7"/>
		<line class="st1" x1="371.6" y1="329.9" x2="371.6" y2="274"/>
		<line class="st1" x1="464.5" y1="274" x2="464.5" y2="329.9"/>
		<line class="st1" x1="46.5" y1="320.4" x2="46.5" y2="376.4"/>
		<line class="st1" x1="0" y1="376.4" x2="0" y2="320.4"/>
		<line class="st1" x1="97.6" y1="371.6" x2="41.7" y2="371.6"/>
		<line class="st1" x1="46.5" y1="376.4" x2="46.5" y2="320.4"/>
		<line class="st1" x1="88.2" y1="325.2" x2="144.1" y2="325.2"/>
		<line class="st1" x1="139.4" y1="320.4" x2="139.4" y2="376.4"/>
		<line class="st1" x1="185.8" y1="320.4" x2="185.8" y2="376.4"/>
		<line class="st1" x1="139.4" y1="376.4" x2="139.4" y2="320.4"/>
		<line class="st1" x1="232.3" y1="320.4" x2="232.3" y2="376.4"/>
		<line class="st1" x1="185.8" y1="376.4" x2="185.8" y2="320.4"/>
		<line class="st1" x1="227.5" y1="325.2" x2="283.5" y2="325.2"/>
		<line class="st1" x1="232.3" y1="376.4" x2="232.3" y2="320.4"/>
		<line class="st1" x1="325.2" y1="320.4" x2="325.2" y2="376.4"/>
		<line class="st1" x1="329.9" y1="371.6" x2="274" y2="371.6"/>
		<line class="st1" x1="320.4" y1="325.2" x2="376.4" y2="325.2"/>
		<line class="st1" x1="376.4" y1="371.6" x2="320.4" y2="371.6"/>
		<line class="st1" x1="325.2" y1="376.4" x2="325.2" y2="320.4"/>
		<line class="st1" x1="418.1" y1="320.4" x2="418.1" y2="376.4"/>
		<line class="st1" x1="464.5" y1="320.4" x2="464.5" y2="376.4"/>
		<line class="st1" x1="469.3" y1="371.6" x2="413.3" y2="371.6"/>
		<line class="st1" x1="418.1" y1="376.4" x2="418.1" y2="320.4"/>
		<line class="st1" x1="0" y1="422.8" x2="0" y2="366.9"/>
		<line class="st1" x1="41.7" y1="371.6" x2="97.6" y2="371.6"/>
		<line class="st1" x1="92.9" y1="366.9" x2="92.9" y2="422.8"/>
		<line class="st1" x1="97.6" y1="418.1" x2="41.7" y2="418.1"/>
		<line class="st1" x1="139.4" y1="366.9" x2="139.4" y2="422.8"/>
		<line class="st1" x1="92.9" y1="422.8" x2="92.9" y2="366.9"/>
		<line class="st1" x1="185.8" y1="366.9" x2="185.8" y2="422.8"/>
		<line class="st1" x1="139.4" y1="422.8" x2="139.4" y2="366.9"/>
		<line class="st1" x1="185.8" y1="422.8" x2="185.8" y2="366.9"/>
		<line class="st1" x1="278.7" y1="366.9" x2="278.7" y2="422.8"/>
		<line class="st1" x1="283.5" y1="418.1" x2="227.5" y2="418.1"/>
		<line class="st1" x1="274" y1="371.6" x2="329.9" y2="371.6"/>
		<line class="st1" x1="278.7" y1="422.8" x2="278.7" y2="366.9"/>
		<line class="st1" x1="320.4" y1="371.6" x2="376.4" y2="371.6"/>
		<line class="st1" x1="371.6" y1="366.9" x2="371.6" y2="422.8"/>
		<line class="st1" x1="422.8" y1="418.1" x2="366.9" y2="418.1"/>
		<line class="st1" x1="371.6" y1="422.8" x2="371.6" y2="366.9"/>
		<line class="st1" x1="413.3" y1="371.6" x2="469.3" y2="371.6"/>
		<line class="st1" x1="464.5" y1="366.9" x2="464.5" y2="422.8"/>
		<line class="st1" x1="51.2" y1="464.5" x2="-4.7" y2="464.5"/>
		<line class="st1" x1="0" y1="469.3" x2="0" y2="413.3"/>
		<line class="st1" x1="41.7" y1="418.1" x2="97.6" y2="418.1"/>
		<line class="st1" x1="97.6" y1="464.5" x2="41.7" y2="464.5"/>
		<line class="st1" x1="144.1" y1="464.5" x2="88.2" y2="464.5"/>
		<line class="st1" x1="185.8" y1="413.3" x2="185.8" y2="469.3"/>
		<line class="st1" x1="190.5" y1="464.5" x2="134.6" y2="464.5"/>
		<line class="st1" x1="237" y1="464.5" x2="181.1" y2="464.5"/>
		<line class="st1" x1="227.5" y1="418.1" x2="283.5" y2="418.1"/>
		<line class="st1" x1="283.5" y1="464.5" x2="227.5" y2="464.5"/>
		<line class="st1" x1="325.2" y1="413.3" x2="325.2" y2="469.3"/>
		<line class="st1" x1="329.9" y1="464.5" x2="274" y2="464.5"/>
		<line class="st1" x1="376.4" y1="464.5" x2="320.4" y2="464.5"/>
		<line class="st1" x1="325.2" y1="469.3" x2="325.2" y2="413.3"/>
		<line class="st1" x1="366.9" y1="418.1" x2="422.8" y2="418.1"/>
		<line class="st1" x1="422.8" y1="464.5" x2="366.9" y2="464.5"/>
		<line class="st1" x1="464.5" y1="413.3" x2="464.5" y2="469.3"/>
		<line class="st1" x1="469.3" y1="464.5" x2="413.3" y2="464.5"/>
	</g>
</g>
<g id="illinois-simple">
	<g>
		<line class="st1" x1="-4.7" y1="0" x2="51.2" y2="0"/>
		<line class="st1" x1="46.5" y1="-4.7" x2="46.5" y2="51.2"/>
		<line class="st1" x1="0" y1="51.2" x2="0" y2="-4.7"/>
		<line class="st1" x1="41.7" y1="0" x2="97.6" y2="0"/>
		<line class="st1" x1="46.5" y1="51.2" x2="46.5" y2="-4.7"/>
		<line class="st1" x1="88.2" y1="0" x2="144.1" y2="0"/>
		<line class="st1" x1="144.1" y1="46.5" x2="88.2" y2="46.5"/>
		<line class="st1" x1="134.6" y1="0" x2="190.5" y2="0"/>
		<line class="st1" x1="181.1" y1="0" x2="237" y2="0"/>
		<line class="st1" x1="232.3" y1="-4.7" x2="232.3" y2="51.2"/>
		<line class="st1" x1="237" y1="46.5" x2="181.1" y2="46.5"/>
		<line class="st1" x1="227.5" y1="0" x2="283.5" y2="0"/>
		<line class="st1" x1="232.3" y1="51.2" x2="232.3" y2="-4.7"/>
		<line class="st1" x1="274" y1="0" x2="329.9" y2="0"/>
		<line class="st1" x1="329.9" y1="46.5" x2="274" y2="46.5"/>
		<line class="st1" x1="320.4" y1="0" x2="376.4" y2="0"/>
		<line class="st1" x1="376.4" y1="46.5" x2="320.4" y2="46.5"/>
		<line class="st1" x1="366.9" y1="0" x2="422.8" y2="0"/>
		<line class="st1" x1="413.3" y1="0" x2="469.3" y2="0"/>
		<line class="st1" x1="464.5" y1="-4.7" x2="464.5" y2="51.2"/>
		<line class="st1" x1="469.3" y1="46.5" x2="413.3" y2="46.5"/>
		<line class="st1" x1="46.5" y1="41.7" x2="46.5" y2="97.6"/>
		<line class="st1" x1="0" y1="97.6" x2="0" y2="41.7"/>
		<line class="st1" x1="46.5" y1="97.6" x2="46.5" y2="41.7"/>
		<line class="st1" x1="88.2" y1="46.5" x2="144.1" y2="46.5"/>
		<line class="st1" x1="139.4" y1="41.7" x2="139.4" y2="97.6"/>
		<line class="st1" x1="139.4" y1="97.6" x2="139.4" y2="41.7"/>
		<line class="st1" x1="181.1" y1="46.5" x2="237" y2="46.5"/>
		<line class="st1" x1="237" y1="92.9" x2="181.1" y2="92.9"/>
		<line class="st1" x1="283.5" y1="92.9" x2="227.5" y2="92.9"/>
		<line class="st1" x1="274" y1="46.5" x2="329.9" y2="46.5"/>
		<line class="st1" x1="320.4" y1="46.5" x2="376.4" y2="46.5"/>
		<line class="st1" x1="371.6" y1="41.7" x2="371.6" y2="97.6"/>
		<line class="st1" x1="376.4" y1="92.9" x2="320.4" y2="92.9"/>
		<line class="st1" x1="371.6" y1="97.6" x2="371.6" y2="41.7"/>
		<line class="st1" x1="413.3" y1="46.5" x2="469.3" y2="46.5"/>
		<line class="st1" x1="464.5" y1="41.7" x2="464.5" y2="97.6"/>
		<line class="st1" x1="0" y1="144.1" x2="0" y2="88.2"/>
		<line class="st1" x1="92.9" y1="88.2" x2="92.9" y2="144.1"/>
		<line class="st1" x1="139.4" y1="88.2" x2="139.4" y2="144.1"/>
		<line class="st1" x1="92.9" y1="144.1" x2="92.9" y2="88.2"/>
		<line class="st1" x1="185.8" y1="88.2" x2="185.8" y2="144.1"/>
		<line class="st1" x1="139.4" y1="144.1" x2="139.4" y2="88.2"/>
		<line class="st1" x1="181.1" y1="92.9" x2="237" y2="92.9"/>
		<line class="st1" x1="237" y1="139.4" x2="181.1" y2="139.4"/>
		<line class="st1" x1="185.8" y1="144.1" x2="185.8" y2="88.2"/>
		<line class="st1" x1="227.5" y1="92.9" x2="283.5" y2="92.9"/>
		<line class="st1" x1="278.7" y1="88.2" x2="278.7" y2="144.1"/>
		<line class="st1" x1="278.7" y1="144.1" x2="278.7" y2="88.2"/>
		<line class="st1" x1="320.4" y1="92.9" x2="376.4" y2="92.9"/>
		<line class="st1" x1="371.6" y1="88.2" x2="371.6" y2="144.1"/>
		<line class="st1" x1="418.1" y1="88.2" x2="418.1" y2="144.1"/>
		<line class="st1" x1="371.6" y1="144.1" x2="371.6" y2="88.2"/>
		<line class="st1" x1="464.5" y1="88.2" x2="464.5" y2="144.1"/>
		<line class="st1" x1="418.1" y1="144.1" x2="418.1" y2="88.2"/>
		<line class="st1" x1="46.5" y1="134.6" x2="46.5" y2="190.5"/>
		<line class="st1" x1="0" y1="190.5" x2="0" y2="134.6"/>
		<line class="st1" x1="92.9" y1="134.6" x2="92.9" y2="190.5"/>
		<line class="st1" x1="97.6" y1="185.8" x2="41.7" y2="185.8"/>
		<line class="st1" x1="46.5" y1="190.5" x2="46.5" y2="134.6"/>
		<line class="st1" x1="92.9" y1="190.5" x2="92.9" y2="134.6"/>
		<line class="st1" x1="190.5" y1="185.8" x2="134.6" y2="185.8"/>
		<line class="st1" x1="181.1" y1="139.4" x2="237" y2="139.4"/>
		<line class="st1" x1="283.5" y1="185.8" x2="227.5" y2="185.8"/>
		<line class="st1" x1="325.2" y1="134.6" x2="325.2" y2="190.5"/>
		<line class="st1" x1="325.2" y1="190.5" x2="325.2" y2="134.6"/>
		<line class="st1" x1="422.8" y1="185.8" x2="366.9" y2="185.8"/>
		<line class="st1" x1="464.5" y1="134.6" x2="464.5" y2="190.5"/>
		<line class="st1" x1="0" y1="237" x2="0" y2="181.1"/>
		<line class="st1" x1="41.7" y1="185.8" x2="97.6" y2="185.8"/>
		<line class="st1" x1="92.9" y1="181.1" x2="92.9" y2="237"/>
		<line class="st1" x1="92.9" y1="237" x2="92.9" y2="181.1"/>
		<line class="st1" x1="134.6" y1="185.8" x2="190.5" y2="185.8"/>
		<line class="st1" x1="190.5" y1="232.3" x2="134.6" y2="232.3"/>
		<line class="st1" x1="232.3" y1="181.1" x2="232.3" y2="237"/>
		<line class="st1" x1="237" y1="232.3" x2="181.1" y2="232.3"/>
		<line class="st1" x1="227.5" y1="185.8" x2="283.5" y2="185.8"/>
		<line class="st1" x1="232.3" y1="237" x2="232.3" y2="181.1"/>
		<line class="st1" x1="325.2" y1="181.1" x2="325.2" y2="237"/>
		<line class="st1" x1="329.9" y1="232.3" x2="274" y2="232.3"/>
		<line class="st1" x1="371.6" y1="181.1" x2="371.6" y2="237"/>
		<line class="st1" x1="325.2" y1="237" x2="325.2" y2="181.1"/>
		<line class="st1" x1="366.9" y1="185.8" x2="422.8" y2="185.8"/>
		<line class="st1" x1="371.6" y1="237" x2="371.6" y2="181.1"/>
		<line class="st1" x1="464.5" y1="181.1" x2="464.5" y2="237"/>
		<line class="st1" x1="469.3" y1="232.3" x2="413.3" y2="232.3"/>
		<line class="st1" x1="46.5" y1="227.5" x2="46.5" y2="283.5"/>
		<line class="st1" x1="0" y1="283.5" x2="0" y2="227.5"/>
		<line class="st1" x1="46.5" y1="283.5" x2="46.5" y2="227.5"/>
		<line class="st1" x1="134.6" y1="232.3" x2="190.5" y2="232.3"/>
		<line class="st1" x1="181.1" y1="232.3" x2="237" y2="232.3"/>
		<line class="st1" x1="283.5" y1="278.7" x2="227.5" y2="278.7"/>
		<line class="st1" x1="274" y1="232.3" x2="329.9" y2="232.3"/>
		<line class="st1" x1="325.2" y1="227.5" x2="325.2" y2="283.5"/>
		<line class="st1" x1="371.6" y1="227.5" x2="371.6" y2="283.5"/>
		<line class="st1" x1="325.2" y1="283.5" x2="325.2" y2="227.5"/>
		<line class="st1" x1="422.8" y1="278.7" x2="366.9" y2="278.7"/>
		<line class="st1" x1="371.6" y1="283.5" x2="371.6" y2="227.5"/>
		<line class="st1" x1="413.3" y1="232.3" x2="469.3" y2="232.3"/>
		<line class="st1" x1="464.5" y1="227.5" x2="464.5" y2="283.5"/>
		<line class="st1" x1="46.5" y1="274" x2="46.5" y2="329.9"/>
		<line class="st1" x1="0" y1="329.9" x2="0" y2="274"/>
		<line class="st1" x1="92.9" y1="274" x2="92.9" y2="329.9"/>
		<line class="st1" x1="46.5" y1="329.9" x2="46.5" y2="274"/>
		<line class="st1" x1="139.4" y1="274" x2="139.4" y2="329.9"/>
		<line class="st1" x1="144.1" y1="325.2" x2="88.2" y2="325.2"/>
		<line class="st1" x1="92.9" y1="329.9" x2="92.9" y2="274"/>
		<line class="st1" x1="185.8" y1="274" x2="185.8" y2="329.9"/>
		<line class="st1" x1="139.4" y1="329.9" x2="139.4" y2="274"/>
		<line class="st1" x1="185.8" y1="329.9" x2="185.8" y2="274"/>
		<line class="st1" x1="227.5" y1="278.7" x2="283.5" y2="278.7"/>
		<line class="st1" x1="278.7" y1="274" x2="278.7" y2="329.9"/>
		<line class="st1" x1="283.5" y1="325.2" x2="227.5" y2="325.2"/>
		<line class="st1" x1="278.7" y1="329.9" x2="278.7" y2="274"/>
		<line class="st1" x1="376.4" y1="325.2" x2="320.4" y2="325.2"/>
		<line class="st1" x1="366.9" y1="278.7" x2="422.8" y2="278.7"/>
		<line class="st1" x1="464.5" y1="274" x2="464.5" y2="329.9"/>
		<line class="st1" x1="46.5" y1="320.4" x2="46.5" y2="376.4"/>
		<line class="st1" x1="0" y1="376.4" x2="0" y2="320.4"/>
		<line class="st1" x1="97.6" y1="371.6" x2="41.7" y2="371.6"/>
		<path class="st1" d="M46.5,320.4"/>
		<path class="st1" d="M46.5,376.4"/>
		<line class="st1" x1="88.2" y1="325.2" x2="144.1" y2="325.2"/>
		<line class="st1" x1="185.8" y1="320.4" x2="185.8" y2="376.4"/>
		<line class="st1" x1="232.3" y1="320.4" x2="232.3" y2="376.4"/>
		<line class="st1" x1="185.8" y1="376.4" x2="185.8" y2="320.4"/>
		<line class="st1" x1="227.5" y1="325.2" x2="283.5" y2="325.2"/>
		<line class="st1" x1="232.3" y1="376.4" x2="232.3" y2="320.4"/>
		<line class="st1" x1="325.2" y1="320.4" x2="325.2" y2="376.4"/>
		<line class="st1" x1="320.4" y1="325.2" x2="376.4" y2="325.2"/>
		<line class="st1" x1="376.4" y1="371.6" x2="320.4" y2="371.6"/>
		<line class="st1" x1="325.2" y1="376.4" x2="325.2" y2="320.4"/>
		<line class="st1" x1="418.1" y1="320.4" x2="418.1" y2="376.4"/>
		<line class="st1" x1="464.5" y1="320.4" x2="464.5" y2="376.4"/>
		<line class="st1" x1="469.3" y1="371.6" x2="413.3" y2="371.6"/>
		<line class="st1" x1="418.1" y1="376.4" x2="418.1" y2="320.4"/>
		<line class="st1" x1="0" y1="422.8" x2="0" y2="366.9"/>
		<line class="st1" x1="41.7" y1="371.6" x2="97.6" y2="371.6"/>
		<line class="st1" x1="92.9" y1="366.9" x2="92.9" y2="422.8"/>
		<line class="st1" x1="97.6" y1="418.1" x2="41.7" y2="418.1"/>
		<line class="st1" x1="139.4" y1="366.9" x2="139.4" y2="422.8"/>
		<line class="st1" x1="92.9" y1="422.8" x2="92.9" y2="366.9"/>
		<line class="st1" x1="185.8" y1="366.9" x2="185.8" y2="422.8"/>
		<line class="st1" x1="139.4" y1="422.8" x2="139.4" y2="366.9"/>
		<line class="st1" x1="185.8" y1="422.8" x2="185.8" y2="366.9"/>
		<line class="st1" x1="278.7" y1="366.9" x2="278.7" y2="422.8"/>
		<line class="st1" x1="283.5" y1="418.1" x2="227.5" y2="418.1"/>
		<line class="st1" x1="278.7" y1="422.8" x2="278.7" y2="366.9"/>
		<line class="st1" x1="320.4" y1="371.6" x2="376.4" y2="371.6"/>
		<line class="st1" x1="371.6" y1="366.9" x2="371.6" y2="422.8"/>
		<line class="st1" x1="422.8" y1="418.1" x2="366.9" y2="418.1"/>
		<line class="st1" x1="371.6" y1="422.8" x2="371.6" y2="366.9"/>
		<line class="st1" x1="413.3" y1="371.6" x2="469.3" y2="371.6"/>
		<line class="st1" x1="464.5" y1="366.9" x2="464.5" y2="422.8"/>
		<line class="st1" x1="51.2" y1="464.5" x2="-4.7" y2="464.5"/>
		<line class="st1" x1="0" y1="469.3" x2="0" y2="413.3"/>
		<line class="st1" x1="41.7" y1="418.1" x2="97.6" y2="418.1"/>
		<line class="st1" x1="97.6" y1="464.5" x2="41.7" y2="464.5"/>
		<line class="st1" x1="144.1" y1="464.5" x2="88.2" y2="464.5"/>
		<line class="st1" x1="190.5" y1="464.5" x2="134.6" y2="464.5"/>
		<line class="st1" x1="237" y1="464.5" x2="181.1" y2="464.5"/>
		<line class="st1" x1="227.5" y1="418.1" x2="283.5" y2="418.1"/>
		<line class="st1" x1="283.5" y1="464.5" x2="227.5" y2="464.5"/>
		<line class="st1" x1="325.2" y1="413.3" x2="325.2" y2="469.3"/>
		<line class="st1" x1="329.9" y1="464.5" x2="274" y2="464.5"/>
		<line class="st1" x1="376.4" y1="464.5" x2="320.4" y2="464.5"/>
		<line class="st1" x1="325.2" y1="469.3" x2="325.2" y2="413.3"/>
		<line class="st1" x1="366.9" y1="418.1" x2="422.8" y2="418.1"/>
		<line class="st1" x1="422.8" y1="464.5" x2="366.9" y2="464.5"/>
		<line class="st1" x1="464.5" y1="413.3" x2="464.5" y2="469.3"/>
		<line class="st1" x1="469.3" y1="464.5" x2="413.3" y2="464.5"/>
	</g>
</g>
</svg>
