<svg width="100%" height="100%" viewBox="0 0 26 26" fill="none" xmlns="http://www.w3.org/2000/svg">
<path d="M17 13C17 15.25 15.125 17 13 17C10.875 17 9 15.25 9 13C9 10.75 10.875 9 13 9C15.25 9 17 10.75 17 13ZM25.625 7.375V18.5C25.625 22.375 22.5 25.625 18.5 25.625H7.375C3.5 25.625 0.25 22.5 0.25 18.5V7.375C0.25 3.5 3.375 0.25 7.375 0.25H18.5C22.5 0.375 25.625 3.5 25.625 7.375ZM19.125 13C19.125 9.625 16.375 6.875 13 6.875C9.625 6.875 6.875 9.625 6.875 13C6.875 16.375 9.625 19.125 13 19.125C16.375 19.125 19.125 16.375 19.125 13ZM21.125 6.375C21.125 5.5 20.5 4.875 19.625 4.875C18.75 4.875 18.125 5.5 18.125 6.375C18.125 7.25 18.75 7.875 19.625 7.875C20.375 7.875 21.125 7.25 21.125 6.375Z" fill="#34373E"/>
</svg>
