<svg width="100%" height="100%" viewBox="0 0 1030 843" fill="none" xmlns="http://www.w3.org/2000/svg">
<g id="intro-maze">
<g id="Group">
<g id="Group 6">
<path id="Vector" d="M515.532 632.121V584.155" stroke="#B0A380" stroke-width="3" stroke-miterlimit="10"/>
<path id="Vector_2" d="M818.31 328.387C818.31 328.387 804.465 328.387 794.675 328.387C794.675 275.108 723.071 281.82 701.394 281.82H655.384" stroke="#B0A380" stroke-width="3" stroke-miterlimit="10"/>
<path id="Vector_3" d="M794.675 358.173C794.675 364.606 795.234 367.682 794.395 377.611C792.437 398.587 783.767 421.801 748.105 421.801H700.975H678.039V444.735" stroke="#B0A380" stroke-width="3" stroke-miterlimit="10"/>
<path id="Vector_4" d="M841.385 374.675V398.308H818.31L812.156 351.741H887.955V374.675H864.6V398.308H911.311V514.935H887.955" stroke="#B0A380" stroke-width="3" stroke-miterlimit="10"/>
<path id="Vector_5" d="M655.523 421.521H561.544" stroke="#B0A380" stroke-width="3" stroke-miterlimit="10"/>
<path id="Vector_6" d="M583.36 398.027H606.715" stroke="#B0A380" stroke-width="3" stroke-miterlimit="10"/>
<path id="Vector_7" d="M537.769 421.661H444.209V445.014" stroke="#B0A380" stroke-width="3" stroke-miterlimit="10"/>
<path id="Vector_8" d="M561.404 514.936H531.056" stroke="#B0A380" stroke-width="3" stroke-miterlimit="10"/>
<path id="Vector_9" d="M514.973 328.248V351.741V398.028" stroke="#B0A380" stroke-width="3" stroke-miterlimit="10"/>
<path id="Vector_10" d="M421.693 328.108V258.468" stroke="#B0A380" stroke-width="3" stroke-miterlimit="10"/>
<path id="Vector_11" d="M420.993 281.821H374.563H305.057C321.28 281.821 328.412 270.914 328.412 258.468" stroke="#B0A380" stroke-width="3" stroke-miterlimit="10"/>
<path id="Vector_12" d="M165.206 281.822H211.637H281.003C264.78 281.822 257.648 270.914 257.648 258.469H234.992V211.902H258.207" stroke="#B0A380" stroke-width="3" stroke-miterlimit="10"/>
<path id="Vector_13" d="M444.908 398.029V375.095" stroke="#B0A380" stroke-width="3" stroke-miterlimit="10"/>
<path id="Vector_14" d="M339.181 538.288V445.014C339.181 424.738 360.997 421.661 398.338 421.661H421.693" stroke="#B0A380" stroke-width="3" stroke-miterlimit="10"/>
<path id="Vector_15" d="M258.766 421.661H234.432V467.389" stroke="#B0A380" stroke-width="3" stroke-miterlimit="10"/>
<path id="Vector_16" d="M805.304 445.014V538.288C805.304 558.565 783.487 561.641 746.147 561.641H724.61" stroke="#B0A380" stroke-width="3" stroke-miterlimit="10"/>
<path id="Vector_17" d="M864.321 584.855V561.502C827.12 561.502 805.164 558.425 805.164 538.148V445.014V421.661H887.956" stroke="#B0A380" stroke-width="3" stroke-miterlimit="10"/>
<path id="Vector_18" d="M934.526 421.522V398.308H1027.81V584.855H887.956V561.502H1004.59" stroke="#B0A380" stroke-width="3" stroke-miterlimit="10"/>
<path id="Vector_19" d="M1004.59 445.014V421.521H957.881" stroke="#B0A380" stroke-width="3" stroke-miterlimit="10"/>
<path id="Vector_20" d="M957.881 491.581H1004.59V468.507H934.526V445.014H981.236" stroke="#B0A380" stroke-width="3" stroke-miterlimit="10"/>
<path id="Vector_21" d="M911.311 536.75H1004.59V514.935H934.526V491.582" stroke="#B0A380" stroke-width="3" stroke-miterlimit="10"/>
<path id="Vector_22" d="M631.609 304.615V281.821H561.544V188.967" stroke="#B0A380" stroke-width="3" stroke-miterlimit="10"/>
<path id="Vector_23" d="M538.188 281.821H491.618V212.32H468.263" stroke="#B0A380" stroke-width="3" stroke-miterlimit="10"/>
<path id="Vector_24" d="M468.123 281.821H420.993" stroke="#B0A380" stroke-width="3" stroke-miterlimit="10"/>
<path id="Vector_25" d="M211.776 95.2739V258.468H71.9254" stroke="#B0A380" stroke-width="3" stroke-miterlimit="10"/>
<path id="Vector_26" d="M211.776 398.028V305.174" stroke="#B0A380" stroke-width="3" stroke-miterlimit="10"/>
<path id="Vector_27" d="M188.561 281.821V375.094" stroke="#B0A380" stroke-width="3" stroke-miterlimit="10"/>
<path id="Vector_28" d="M165.206 398.308V304.615" stroke="#B0A380" stroke-width="3" stroke-miterlimit="10"/>
<path id="Vector_29" d="M188.701 421.661H165.206L141.851 467.389H95.2805" stroke="#B0A380" stroke-width="3" stroke-miterlimit="10"/>
<path id="Vector_30" d="M141.851 421.521L118.496 444.175V421.521H141.851Z" stroke="#B0A380" stroke-width="3" stroke-miterlimit="10"/>
<path id="Vector_31" d="M141.711 491.162L118.496 513.816H95.2805V491.721L141.711 491.162Z" stroke="#B0A380" stroke-width="3" stroke-miterlimit="10"/>
<path id="Vector_32" d="M118.496 537.589V561.502H188.561" stroke="#B0A380" stroke-width="3" stroke-miterlimit="10"/>
<path id="Vector_33" d="M188.561 561.502H258.487V536.89" stroke="#B0A380" stroke-width="3" stroke-miterlimit="10"/>
<path id="Vector_34" d="M281.003 561.501H305.057H316.805H339.321" stroke="#B0A380" stroke-width="3" stroke-miterlimit="10"/>
<path id="Vector_35" d="M631.469 491.721V561.501H561.544V538.288" stroke="#B0A380" stroke-width="3" stroke-miterlimit="10"/>
<path id="Vector_36" d="M620.561 561.502H701.394V538.289" stroke="#B0A380" stroke-width="3" stroke-miterlimit="10"/>
<path id="Vector_37" d="M630.63 561.502C653.705 562.061 723.91 555.209 723.91 608.348L747.266 607.789V584.156" stroke="#B0A380" stroke-width="3" stroke-miterlimit="10"/>
<path id="Vector_38" d="M608.114 724.555V701.621H630.07H677.2C729.784 701.621 723.77 651.558 723.77 631.701H770.481V608.348H793.836" stroke="#B0A380" stroke-width="3" stroke-miterlimit="10"/>
<path id="Vector_39" d="M374.982 701.482H281.702" stroke="#B0A380" stroke-width="3" stroke-miterlimit="10"/>
<path id="Vector_40" d="M468.263 701.482V771.402V817.969H584.899V724.695H491.618V794.755H561.544V748.049H514.973V771.402H538.188" stroke="#B0A380" stroke-width="3" stroke-miterlimit="10"/>
<path id="Vector_41" d="M374.983 701.482H444.908" stroke="#B0A380" stroke-width="3" stroke-miterlimit="10"/>
<path id="Vector_42" d="M444.908 701.482H584.899" stroke="#B0A380" stroke-width="3" stroke-miterlimit="10"/>
<path id="Vector_43" d="M608.114 724.695V771.402H655.104" stroke="#B0A380" stroke-width="3" stroke-miterlimit="10"/>
<path id="Vector_44" d="M630.91 817.968H655.104V794.754H608.114V841.321H468.263H444.908V748.048" stroke="#B0A380" stroke-width="3" stroke-miterlimit="10"/>
<path id="Vector_45" d="M631.609 724.695H678.599" stroke="#B0A380" stroke-width="3" stroke-miterlimit="10"/>
<path id="Vector_46" d="M258.486 188.547H234.432V141.98H305.057" stroke="#B0A380" stroke-width="3" stroke-miterlimit="10"/>
<path id="Vector_47" d="M328.272 141.841V119.327" stroke="#B0A380" stroke-width="3" stroke-miterlimit="10"/>
<path id="Vector_48" d="M841.385 351.321V281.821H793.556" stroke="#B0A380" stroke-width="3" stroke-miterlimit="10"/>
<path id="Vector_49" d="M818.31 281.821V304.615" stroke="#B0A380" stroke-width="3" stroke-miterlimit="10"/>
<path id="Vector_50" d="M794.675 235.674V258.467H771.32V235.674V188.547C771.32 170.788 766.146 141.98 724.61 141.98C683.074 141.98 678.319 141.98 678.319 141.98H654.544V165.334" stroke="#B0A380" stroke-width="3" stroke-miterlimit="10"/>
<path id="Vector_51" d="M676.641 328.248V351.741" stroke="#B0A380" stroke-width="3" stroke-miterlimit="10"/>
<path id="Vector_52" d="M654.684 235.675V211.902H678.039" stroke="#B0A380" stroke-width="3" stroke-miterlimit="10"/>
<path id="Vector_53" d="M957.881 374.675H911.31V328.248H864.74" stroke="#B0A380" stroke-width="3" stroke-miterlimit="10"/>
<path id="Vector_54" d="M981.236 374.674H1027.81V398.307" stroke="#B0A380" stroke-width="3" stroke-miterlimit="10"/>
<path id="Vector_55" d="M934.526 304.614H864.6V165.193" stroke="#B0A380" stroke-width="3" stroke-miterlimit="10"/>
<path id="Vector_56" d="M957.881 281.821H887.956V212.32H911.311" stroke="#B0A380" stroke-width="3" stroke-miterlimit="10"/>
<path id="Vector_57" d="M911.311 258.468H981.236V328.248H934.526V351.741" stroke="#B0A380" stroke-width="3" stroke-miterlimit="10"/>
<path id="Vector_58" d="M957.881 328.248V304.615" stroke="#B0A380" stroke-width="3" stroke-miterlimit="10"/>
<path id="Vector_59" d="M957.881 351.461H1004.59V374.675" stroke="#B0A380" stroke-width="3" stroke-miterlimit="10"/>
<path id="Vector_60" d="M1027.81 374.675V328.248V235.674V141.98H911.311V235.114H1004.59V165.194H934.526V211.901H981.236V188.967H957.881" stroke="#B0A380" stroke-width="3" stroke-miterlimit="10"/>
<path id="Vector_61" d="M1027.81 328.248H1004.59" stroke="#B0A380" stroke-width="3" stroke-miterlimit="10"/>
<path id="Vector_62" d="M981.236 305.174H1004.59" stroke="#B0A380" stroke-width="3" stroke-miterlimit="10"/>
<path id="Vector_63" d="M1027.81 281.821H1004.59" stroke="#B0A380" stroke-width="3" stroke-miterlimit="10"/>
<path id="Vector_64" d="M981.236 258.468H1004.59" stroke="#B0A380" stroke-width="3" stroke-miterlimit="10"/>
<path id="Vector_65" d="M864.74 188.547H887.955V141.98" stroke="#B0A380" stroke-width="3" stroke-miterlimit="10"/>
<path id="Vector_66" d="M864.6 258.328H818.31V234.975H841.525V118.627H864.74V141.841" stroke="#B0A380" stroke-width="3" stroke-miterlimit="10"/>
<path id="Vector_67" d="M911.311 608.488H957.881V584.995" stroke="#B0A380" stroke-width="3" stroke-miterlimit="10"/>
<path id="Vector_68" d="M957.881 608.488H1004.59V654.775H957.881V632.121H981.236" stroke="#B0A380" stroke-width="3" stroke-miterlimit="10"/>
<path id="Vector_69" d="M1027.81 584.854V701.481H1004.59V678.128H957.881" stroke="#B0A380" stroke-width="3" stroke-miterlimit="10"/>
<path id="Vector_70" d="M934.526 608.488V748.049" stroke="#B0A380" stroke-width="3" stroke-miterlimit="10"/>
<path id="Vector_71" d="M911.311 678.269H864.6" stroke="#B0A380" stroke-width="3" stroke-miterlimit="10"/>
<path id="Vector_72" d="M841.385 701.482H864.74V771.402H841.385V748.049H794.955V771.402" stroke="#B0A380" stroke-width="3" stroke-miterlimit="10"/>
<path id="Vector_73" d="M608.114 748.048H724.749V724.554H841.385V654.494H887.955V631.561H911.311V701.76L887.955 701.481V771.401" stroke="#B0A380" stroke-width="3" stroke-miterlimit="10"/>
<path id="Vector_74" d="M911.311 701.761V794.755" stroke="#B0A380" stroke-width="3" stroke-miterlimit="10"/>
<path id="Vector_75" d="M747.965 725.255V773.36" stroke="#B0A380" stroke-width="3" stroke-miterlimit="10"/>
<path id="Vector_76" d="M771.32 725.255V817.969" stroke="#B0A380" stroke-width="3" stroke-miterlimit="10"/>
<path id="Vector_77" d="M608.114 841.322H678.599V771.542H701.254V817.969" stroke="#B0A380" stroke-width="3" stroke-miterlimit="10"/>
<path id="Vector_78" d="M678.599 841.322H724.75V771.542" stroke="#B0A380" stroke-width="3" stroke-miterlimit="10"/>
<path id="Vector_79" d="M724.749 841.322H748.105V794.755" stroke="#B0A380" stroke-width="3" stroke-miterlimit="10"/>
<path id="Vector_80" d="M748.104 841.322H794.955V794.755H887.955V817.968" stroke="#B0A380" stroke-width="3" stroke-miterlimit="10"/>
<path id="Vector_81" d="M817.471 794.755V771.542" stroke="#B0A380" stroke-width="3" stroke-miterlimit="10"/>
<path id="Vector_82" d="M794.955 841.322H911.311H934.526M911.311 771.542H934.526V817.175" stroke="#B0A380" stroke-width="3" stroke-miterlimit="10"/>
<path id="Vector_83" d="M818.31 841.323V817.969" stroke="#B0A380" stroke-width="3" stroke-miterlimit="10"/>
<path id="Vector_84" d="M841.525 794.755V817.968" stroke="#B0A380" stroke-width="3" stroke-miterlimit="10"/>
<path id="Vector_85" d="M864.6 841.323V817.969" stroke="#B0A380" stroke-width="3" stroke-miterlimit="10"/>
<path id="Vector_86" d="M934.526 701.482H981.236V725.255H957.881V747.769H1004.59V817.969H957.881V771.402" stroke="#B0A380" stroke-width="3" stroke-miterlimit="10"/>
<path id="Vector_87" d="M981.236 725.255H1027.81V701.482" stroke="#B0A380" stroke-width="3" stroke-miterlimit="10"/>
<path id="Vector_88" d="M1027.81 725.255V841.322H1004.59" stroke="#B0A380" stroke-width="3" stroke-miterlimit="10"/>
<path id="Vector_89" d="M981.236 749.307V794.755" stroke="#B0A380" stroke-width="3" stroke-miterlimit="10"/>
<path id="Vector_90" d="M468.123 724.695H398.338V701.482" stroke="#B0A380" stroke-width="3" stroke-miterlimit="10"/>
<path id="Vector_91" d="M420.854 748.048V817.968H351.767V841.321" stroke="#B0A380" stroke-width="3" stroke-miterlimit="10"/>
<path id="Vector_92" d="M2 2.42041H1027.81V141.981" stroke="#B0A380" stroke-width="3" stroke-miterlimit="10"/>
<path id="Vector_93" d="M444.908 841.322H71.9255H2V25.353" stroke="#B0A380" stroke-width="3" stroke-miterlimit="10"/>
<path id="Vector_94" d="M398.337 747.77V794.756H329.391V841.323" stroke="#B0A380" stroke-width="3" stroke-miterlimit="10"/>
<path id="Vector_95" d="M235.131 817.968H305.057V771.541H374.982V747.768V724.695H235.131" stroke="#B0A380" stroke-width="3" stroke-miterlimit="10"/>
<path id="Vector_96" d="M374.983 747.77H280.303" stroke="#B0A380" stroke-width="3" stroke-miterlimit="10"/>
<path id="Vector_97" d="M211.776 654.775H188.561V584.854H95.2805" stroke="#B0A380" stroke-width="3" stroke-miterlimit="10"/>
<path id="Vector_98" d="M211.776 724.695H188.421V678.128H165.206V654.774V608.208H188.561" stroke="#B0A380" stroke-width="3" stroke-miterlimit="10"/>
<path id="Vector_99" d="M234.432 771.402H188.421V817.968H211.776V794.755H281.702V771.402H258.766V724.695" stroke="#B0A380" stroke-width="3" stroke-miterlimit="10"/>
<path id="Vector_100" d="M188.421 817.969H71.9254" stroke="#B0A380" stroke-width="3" stroke-miterlimit="10"/>
<path id="Vector_101" d="M48.5703 841.323V748.049H71.9254V794.756H165.206V747.77" stroke="#B0A380" stroke-width="3" stroke-miterlimit="10"/>
<path id="Vector_102" d="M25.3552 817.968V724.695" stroke="#B0A380" stroke-width="3" stroke-miterlimit="10"/>
<path id="Vector_103" d="M95.2805 724.695V771.402" stroke="#B0A380" stroke-width="3" stroke-miterlimit="10"/>
<path id="Vector_104" d="M118.496 794.475V748.048" stroke="#B0A380" stroke-width="3" stroke-miterlimit="10"/>
<path id="Vector_105" d="M141.711 724.695V771.402" stroke="#B0A380" stroke-width="3" stroke-miterlimit="10"/>
<path id="Vector_106" d="M48.5704 724.696H165.206V701.482H141.711V608.488H25.3552V701.482H118.496V632.121H48.5704V678.129H95.2806V654.775H71.9255" stroke="#B0A380" stroke-width="3" stroke-miterlimit="10"/>
<path id="Vector_107" d="M2 654.775H25.3551" stroke="#B0A380" stroke-width="3" stroke-miterlimit="10"/>
<path id="Vector_108" d="M48.5703 607.509V561.501" stroke="#B0A380" stroke-width="3" stroke-miterlimit="10"/>
<path id="Vector_109" d="M48.5704 584.996H25.3551V537.03" stroke="#B0A380" stroke-width="3" stroke-miterlimit="10"/>
<path id="Vector_110" d="M2 513.815H71.9255" stroke="#B0A380" stroke-width="3" stroke-miterlimit="10"/>
<path id="Vector_111" d="M48.5703 538.289H95.2805V561.502" stroke="#B0A380" stroke-width="3" stroke-miterlimit="10"/>
<path id="Vector_112" d="M71.9254 607.509V561.501" stroke="#B0A380" stroke-width="3" stroke-miterlimit="10"/>
<path id="Vector_113" d="M71.9255 491.721H25.3551V375.094H118.496V281.541H2" stroke="#B0A380" stroke-width="3" stroke-miterlimit="10"/>
<path id="Vector_114" d="M25.3551 351.741H95.2805V328.388H25.3551V305.174H95.2805V281.821" stroke="#B0A380" stroke-width="3" stroke-miterlimit="10"/>
<path id="Vector_115" d="M25.3552 467.388H71.9255V445.014H48.5704V397.888H118.496" stroke="#B0A380" stroke-width="3" stroke-miterlimit="10"/>
<path id="Vector_116" d="M71.9254 397.888V421.521H95.2805V444.315" stroke="#B0A380" stroke-width="3" stroke-miterlimit="10"/>
<path id="Vector_117" d="M48.5703 258.468H2" stroke="#B0A380" stroke-width="3" stroke-miterlimit="10"/>
<path id="Vector_118" d="M25.3551 258.328V188.967H48.5704V235.674H95.2806H188.561V118.627H118.496V212.32H165.206V141.981H141.851V188.967" stroke="#B0A380" stroke-width="3" stroke-miterlimit="10"/>
<path id="Vector_119" d="M2 165.193H71.9255V212.32H95.2806" stroke="#B0A380" stroke-width="3" stroke-miterlimit="10"/>
<path id="Vector_120" d="M211.776 118.627H351.627V165.194" stroke="#B0A380" stroke-width="3" stroke-miterlimit="10"/>
<path id="Vector_121" d="M328.412 211.902H351.767" stroke="#B0A380" stroke-width="3" stroke-miterlimit="10"/>
<path id="Vector_122" d="M351.627 141.84H398.338" stroke="#B0A380" stroke-width="3" stroke-miterlimit="10"/>
<path id="Vector_123" d="M421.553 142.121V118.627H373.584" stroke="#B0A380" stroke-width="3" stroke-miterlimit="10"/>
<path id="Vector_124" d="M538.188 165.194V141.841H468.123L444.628 141.701H444.908V95.2739H327.853" stroke="#B0A380" stroke-width="3" stroke-miterlimit="10"/>
<path id="Vector_125" d="M514.973 95.2729H468.123V118.626H537.769V48.7061" stroke="#B0A380" stroke-width="3" stroke-miterlimit="10"/>
<path id="Vector_126" d="M584.759 141.98H561.544V48.7061" stroke="#B0A380" stroke-width="3" stroke-miterlimit="10"/>
<path id="Vector_127" d="M608.114 142.121V118.628H584.899V71.9209" stroke="#B0A380" stroke-width="3" stroke-miterlimit="10"/>
<path id="Vector_128" d="M631.609 141.841V95.2739H608.114" stroke="#B0A380" stroke-width="3" stroke-miterlimit="10"/>
<path id="Vector_129" d="M654.684 141.98V48.7061" stroke="#B0A380" stroke-width="3" stroke-miterlimit="10"/>
<path id="Vector_130" d="M608.114 71.9202H631.609V25.3533H700.975V2" stroke="#B0A380" stroke-width="3" stroke-miterlimit="10"/>
<path id="Vector_131" d="M678.459 141.981V71.9209" stroke="#B0A380" stroke-width="3" stroke-miterlimit="10"/>
<path id="Vector_132" d="M678.039 48.7061H724.749H793.556" stroke="#B0A380" stroke-width="3" stroke-miterlimit="10"/>
<path id="Vector_133" d="M701.394 48.7061V118.626" stroke="#B0A380" stroke-width="3" stroke-miterlimit="10"/>
<path id="Vector_134" d="M724.749 141.981V71.9209" stroke="#B0A380" stroke-width="3" stroke-miterlimit="10"/>
<path id="Vector_135" d="M748.104 48.7061V118.626" stroke="#B0A380" stroke-width="3" stroke-miterlimit="10"/>
<path id="Vector_136" d="M770.341 175.682V71.9209" stroke="#B0A380" stroke-width="3" stroke-miterlimit="10"/>
<path id="Vector_137" d="M771.32 118.627H817.47V212.321H794.954V141.841" stroke="#B0A380" stroke-width="3" stroke-miterlimit="10"/>
<path id="Vector_138" d="M724.749 25.3542H794.395H818.03V48.7076H841.385V2.42041" stroke="#B0A380" stroke-width="3" stroke-miterlimit="10"/>
<path id="Vector_139" d="M794.395 71.9209H887.956" stroke="#B0A380" stroke-width="3" stroke-miterlimit="10"/>
<path id="Vector_140" d="M794.955 95.2739H957.881V141.841" stroke="#B0A380" stroke-width="3" stroke-miterlimit="10"/>
<path id="Vector_141" d="M981.236 118.628V71.9209" stroke="#B0A380" stroke-width="3" stroke-miterlimit="10"/>
<path id="Vector_142" d="M1004.59 141.841V95.2739" stroke="#B0A380" stroke-width="3" stroke-miterlimit="10"/>
<path id="Vector_143" d="M1027.81 71.9199H957.881V48.7064V25.353H1004.59V48.7064H981.236" stroke="#B0A380" stroke-width="3" stroke-miterlimit="10"/>
<path id="Vector_144" d="M957.881 25.353H934.526V71.9199H911.311V48.7064H864.6" stroke="#B0A380" stroke-width="3" stroke-miterlimit="10"/>
<path id="Vector_145" d="M911.311 2.42041V25.4941H864.6" stroke="#B0A380" stroke-width="3" stroke-miterlimit="10"/>
<path id="Vector_146" d="M608.114 48.7076V2.42041" stroke="#B0A380" stroke-width="3" stroke-miterlimit="10"/>
<path id="Vector_147" d="M584.899 48.7076V25.4941H514.973V2.42041" stroke="#B0A380" stroke-width="3" stroke-miterlimit="10"/>
<path id="Vector_148" d="M468.263 71.9211H514.973V48.7076H491.618V2.42041" stroke="#B0A380" stroke-width="3" stroke-miterlimit="10"/>
<path id="Vector_149" d="M887.956 118.627H934.526V141.841" stroke="#B0A380" stroke-width="3" stroke-miterlimit="10"/>
<path id="Vector_150" d="M95.2805 188.967V95.2739" stroke="#B0A380" stroke-width="3" stroke-miterlimit="10"/>
<path id="Vector_151" d="M48.5704 2.42041V48.7076H25.3552V142.121H71.9255V71.9211V48.7076V25.4941H141.711" stroke="#B0A380" stroke-width="3" stroke-miterlimit="10"/>
<path id="Vector_152" d="M25.3552 2.42041V25.4941" stroke="#B0A380" stroke-width="3" stroke-miterlimit="10"/>
<path id="Vector_153" d="M48.5703 48.7061V72.3391V95.2729" stroke="#B0A380" stroke-width="3" stroke-miterlimit="10"/>
<path id="Vector_154" d="M48.5703 141.841V118.627" stroke="#B0A380" stroke-width="3" stroke-miterlimit="10"/>
<path id="Vector_155" d="M71.9254 48.7061H165.206H258.766" stroke="#B0A380" stroke-width="3" stroke-miterlimit="10"/>
<path id="Vector_156" d="M71.9255 71.9209H118.496V95.2742H188.421" stroke="#B0A380" stroke-width="3" stroke-miterlimit="10"/>
<path id="Vector_157" d="M141.851 48.7061V72.3391" stroke="#B0A380" stroke-width="3" stroke-miterlimit="10"/>
<path id="Vector_158" d="M211.776 48.7067V71.9202H281.702V25.4932" stroke="#B0A380" stroke-width="3" stroke-miterlimit="10"/>
<path id="Vector_159" d="M234.432 72.3398V95.2737H305.057V118.627" stroke="#B0A380" stroke-width="3" stroke-miterlimit="10"/>
<path id="Vector_160" d="M165.206 48.7067V25.4932H235.132" stroke="#B0A380" stroke-width="3" stroke-miterlimit="10"/>
<path id="Vector_161" d="M258.766 2.42041V25.3542" stroke="#B0A380" stroke-width="3" stroke-miterlimit="10"/>
<path id="Vector_162" d="M281.702 48.7067H305.057V72.3397H375.822V25.3533H328.832V2" stroke="#B0A380" stroke-width="3" stroke-miterlimit="10"/>
<path id="Vector_163" d="M420.993 48.8462H444.908V72.3394H398.338V25.353H468.263V48.7064" stroke="#B0A380" stroke-width="3" stroke-miterlimit="10"/>
<path id="Vector_164" d="M353.306 48.8462H328.832V25.353H305.057" stroke="#B0A380" stroke-width="3" stroke-miterlimit="10"/>
<path id="Vector_165" d="M607.554 584.155H631.609" stroke="#B0A380" stroke-width="3" stroke-miterlimit="10"/>
<path id="Vector_166" d="M934.526 841.322H981.236" stroke="#B0A380" stroke-width="3" stroke-miterlimit="10"/>
<path id="Vector_167" d="M584.759 349.923V374.675" stroke="#B0A380" stroke-width="3" stroke-miterlimit="10"/>
<path id="Vector_168" d="M165.346 95.2737V72.3398" stroke="#B0A380" stroke-width="3" stroke-miterlimit="10"/>
<path id="Vector_169" d="M141.851 281.821V398.448H165.206H211.776C211.776 398.448 210.098 421.801 234.432 421.801" stroke="#B0A380" stroke-width="3" stroke-miterlimit="10"/>
<path id="Vector_170" d="M420.853 632.121V596.742C420.853 567.655 391.345 561.642 354.005 561.642H339.32V538.289V445.015C339.32 424.738 317.504 421.662 280.163 421.662V395.651" stroke="#B0A380" stroke-width="3" stroke-miterlimit="10"/>
<path id="Vector_171" d="M538.468 561.502H443.509V538.289" stroke="#B0A380" stroke-width="3" stroke-miterlimit="10"/>
<path id="Vector_172" d="M235.131 607.508H310.231V677.149H281.702V701.481H258.766H211.776V654.495" stroke="#B0A380" stroke-width="3" stroke-miterlimit="10"/>
<path id="Vector_173" d="M281.702 654.775V630.862H258.766V654.495V677.15H234.992V632.121H211.776V584.575H310.231" stroke="#B0A380" stroke-width="3" stroke-miterlimit="10"/>
<path id="Vector_174" d="M701.674 724.555H724.749V701.761H818.31V654.775" stroke="#B0A380" stroke-width="3" stroke-miterlimit="10"/>
<path id="Vector_175" d="M794.955 654.775V677.149H748.104V654.775H770.341" stroke="#B0A380" stroke-width="3" stroke-miterlimit="10"/>
<path id="Vector_176" d="M794.955 654.775V632.121H864.74" stroke="#B0A380" stroke-width="3" stroke-miterlimit="10"/>
<path id="Vector_177" d="M887.955 608.488H818.03V584.854H770.481" stroke="#B0A380" stroke-width="3" stroke-miterlimit="10"/>
<path id="Vector_178" d="M491.478 303.635H468.263" stroke="#B0A380" stroke-width="3" stroke-miterlimit="10"/>
<path id="Vector_179" d="M398.338 351.741V397.889" stroke="#B0A380" stroke-width="3" stroke-miterlimit="10"/>
<path id="Vector_180" d="M328.272 351.741V397.889" stroke="#B0A380" stroke-width="3" stroke-miterlimit="10"/>
</g>
<g id="Group 5">
<path id="Vector_181" d="M325.755 239.449C324.077 243.364 321.699 246.72 318.622 249.517C315.546 252.314 311.91 254.551 307.434 256.09C303.099 257.628 298.204 258.467 293.03 258.467C287.715 258.467 282.821 257.628 278.485 256.09C274.15 254.551 270.514 252.314 267.577 249.517C264.64 246.72 262.263 243.364 260.724 239.449C259.046 235.533 258.347 231.198 258.347 226.304V165.193H281.702V209.663C281.702 211.9 282.261 223.367 282.541 225.465C283.38 229.66 285.058 235.673 293.309 235.673C301.84 235.673 303.519 229.939 304.218 225.465C304.497 223.507 305.057 211.9 305.057 209.663V165.193H328.272V226.304C328.272 231.198 327.433 235.533 325.755 239.449Z" stroke="#6B50DC" stroke-width="5" stroke-miterlimit="10"/>
<path id="Vector_182" d="M398.198 258.467L374.703 211.76L375.122 258.467H351.627V165.193H374.983L398.338 215.676V165.193H421.693V258.467H398.198Z" stroke="#6B50DC" stroke-width="5" stroke-miterlimit="10"/>
<path id="Vector_183" d="M444.908 258.467V165.193H468.263V258.467H444.908Z" stroke="#6B50DC" stroke-width="5" stroke-miterlimit="10"/>
<path id="Vector_184" d="M538.049 188.407V258.467H514.694V188.407H491.478V165.193H561.404V188.407H538.049Z" stroke="#6B50DC" stroke-width="5" stroke-miterlimit="10"/>
<path id="Vector_185" d="M584.759 258.467V165.193H654.684V188.687H612.729V200.293H631.329V223.647H612.729V235.533H654.684V258.327H584.759V258.467Z" stroke="#6B50DC" stroke-width="5" stroke-miterlimit="10"/>
<path id="Vector_186" d="M760.132 211.62C760.132 219.731 758.873 226.863 756.496 232.736C754.118 238.61 750.902 243.504 746.986 247.419C743.07 251.195 738.595 253.992 733.7 255.81C728.805 257.628 722.232 258.467 717.198 258.467H678.039V165.193H713.002C718.177 165.193 728.246 166.032 733.42 167.431C738.455 168.969 743.07 171.486 746.986 175.122C750.902 178.618 754.118 183.512 756.635 189.386C758.873 195.399 760.132 202.81 760.132 211.62ZM736.637 212.18C736.637 207.705 735.938 203.929 734.539 200.992C733.141 198.056 731.323 195.679 729.085 193.861C726.847 192.043 724.19 190.784 721.393 190.085C718.456 189.386 704.052 188.966 700.975 188.966V235.673H712.862C716.079 235.673 718.316 235.253 721.253 234.554C724.19 233.715 726.847 232.457 729.085 230.639C731.323 228.821 733.141 226.443 734.539 223.367C735.938 220.43 736.637 216.655 736.637 212.18Z" stroke="#6B50DC" stroke-width="5" stroke-miterlimit="10"/>
<path id="Vector_187" d="M444.069 490.182C444.069 497.174 442.95 503.467 440.572 509.201C438.195 514.934 434.978 519.828 430.923 524.024C426.867 528.079 421.832 531.295 416.238 533.533C410.504 535.77 404.351 536.889 397.778 536.889C391.065 536.889 385.052 535.77 379.318 533.533C373.724 531.295 368.829 528.079 364.633 524.024C360.578 519.968 357.221 514.934 354.984 509.201C352.606 503.467 351.487 497.034 351.487 490.182C351.487 483.19 352.606 476.758 354.984 471.164C357.361 465.431 360.578 460.676 364.633 456.621C368.689 452.705 373.584 449.629 379.318 447.391C384.912 445.294 391.065 444.175 397.778 444.175C404.351 444.175 410.644 445.294 416.238 447.391C421.972 449.489 426.867 452.565 430.923 456.621C434.978 460.536 438.195 465.431 440.572 471.164C442.95 476.758 444.069 483.19 444.069 490.182ZM420.993 490.322C420.993 487.106 420.434 484.029 419.315 481.232C418.196 478.436 416.518 475.919 414.56 473.961C412.602 472.003 410.085 470.325 407.288 469.206C404.491 468.087 401.274 467.388 397.778 467.388C394.282 467.388 391.205 467.948 388.408 469.206C385.611 470.325 383.094 472.003 381.136 473.961C379.038 475.919 377.5 478.436 376.381 481.232C375.262 484.029 374.703 487.106 374.703 490.322C374.703 493.678 375.262 496.895 376.381 499.691C377.5 502.628 379.178 505.005 381.136 507.103C383.094 509.201 385.611 510.739 388.408 511.997C391.205 513.116 394.422 513.815 397.778 513.815C401.274 513.815 404.351 513.256 407.148 511.997C409.945 510.879 412.462 509.201 414.42 507.103C416.518 505.005 418.056 502.628 419.175 499.691C420.434 496.895 420.993 493.818 420.993 490.322Z" stroke="#6B50DC" stroke-width="5" stroke-miterlimit="10"/>
<g id="Group_2">
<path id="Vector_188" d="M303.519 506.963C303.519 502.768 302.26 499.832 299.883 498.293C297.365 496.615 294.149 495.916 290.093 495.916H280.443V519.13H290.233C291.771 519.13 293.31 518.99 294.848 518.57C296.386 518.29 297.925 517.591 299.183 516.752C300.442 515.913 301.561 514.655 302.4 513.116C303.099 511.438 303.519 509.481 303.519 506.963Z" stroke="#6B50DC" stroke-width="5" stroke-miterlimit="10"/>
<path id="Vector_189" d="M327.853 509.9C327.853 514.934 326.874 519.269 324.776 522.625C322.818 526.121 320.161 528.778 316.804 530.876C313.448 532.974 309.672 534.512 305.477 535.351C301.281 536.33 297.505 536.749 293.03 536.749H258.626V444.035H287.995C291.631 444.035 297.645 444.455 301.421 445.154C305.197 445.853 308.553 447.112 311.63 448.93C314.707 450.747 317.224 453.125 319.042 456.201C321 459.278 321.979 463.193 321.979 467.808C321.979 472.982 320.72 477.317 317.783 480.533C315.825 482.771 313.868 484.869 308.833 487.805V488.085C311.49 488.504 313.868 489.343 316.245 490.462C318.623 491.581 320.58 493.119 322.259 494.937C323.937 496.755 325.335 498.853 326.314 501.37C327.293 504.167 327.853 506.963 327.853 509.9Z" stroke="#6B50DC" stroke-width="5" stroke-miterlimit="10"/>
<path id="Vector_190" d="M299.043 469.906C299.043 466.689 298.064 464.592 296.107 463.333C294.149 462.075 291.491 461.515 288.135 461.515H280.303V478.855H288.275C289.533 478.855 290.792 478.716 292.051 478.436C293.309 478.156 294.568 477.737 295.547 477.037C296.666 476.338 297.505 475.499 298.064 474.241C298.764 473.402 299.043 471.863 299.043 469.906Z" stroke="#6B50DC" stroke-width="5" stroke-miterlimit="10"/>
</g>
<g id="Group_3">
<path id="Vector_191" d="M511.477 536.889L502.946 502.069H491.478V536.889H468.263V444.175H503.645C517.49 444.175 522.945 447.951 526.301 450.188C529.657 452.426 532.315 455.223 534.412 458.859C536.37 462.494 537.489 466.829 537.489 472.283C537.489 478.576 534.692 486.267 525.322 494.937L537.909 537.029H511.477V536.889Z" stroke="#6B50DC" stroke-width="5" stroke-miterlimit="10"/>
<path id="Vector_192" d="M514.553 471.724C514.553 467.528 513.295 464.592 510.917 463.054C508.4 461.375 505.183 460.676 501.128 460.676H491.478V483.89H501.268C502.806 483.89 504.344 483.75 505.883 483.33C507.421 483.051 508.959 482.352 510.218 481.512C511.477 480.673 512.596 479.415 513.435 477.877C514.134 476.199 514.553 474.241 514.553 471.724Z" stroke="#6B50DC" stroke-width="5" stroke-miterlimit="10"/>
</g>
<path id="Vector_193" d="M655.523 537.029V444.595H678.738V537.029H655.523Z" stroke="#6B50DC" stroke-width="5" stroke-miterlimit="10"/>
<path id="Vector_194" d="M607.694 468.508V537.449H584.479V468.508H561.404V444.735H630.91V468.508H607.694Z" stroke="#6B50DC" stroke-width="5" stroke-miterlimit="10"/>
<path id="Vector_195" d="M793.556 490.602C793.556 497.594 792.437 503.887 790.06 509.621C787.682 515.354 784.466 520.248 780.41 524.444C776.354 528.499 771.32 531.715 765.726 533.953C759.992 536.19 753.839 537.309 747.266 537.309C740.553 537.309 734.539 536.19 728.805 533.953C723.211 531.715 718.316 528.499 714.121 524.444C710.065 520.388 706.709 515.354 704.471 509.621C702.094 503.887 700.975 497.454 700.975 490.602C700.975 483.61 702.094 477.178 704.471 471.584C706.849 465.85 710.065 461.096 714.121 457.041C718.177 453.125 723.071 450.048 728.805 447.811C734.399 445.713 740.553 444.595 747.266 444.595C753.839 444.595 760.132 445.713 765.726 447.811C771.46 449.909 776.354 452.985 780.41 457.041C784.466 460.956 787.682 465.85 790.06 471.584C792.298 477.178 793.556 483.47 793.556 490.602ZM770.341 490.742C770.341 487.526 769.782 484.449 768.663 481.652C767.544 478.856 765.866 476.338 763.908 474.381C761.95 472.423 759.433 470.745 756.636 469.626C753.838 468.507 750.622 467.808 747.126 467.808C743.629 467.808 740.553 468.368 737.756 469.626C734.959 470.745 732.441 472.423 730.483 474.381C728.386 476.338 726.847 478.856 725.728 481.652C724.61 484.449 724.05 487.526 724.05 490.742C724.05 494.098 724.61 497.315 725.728 500.111C726.847 503.048 728.526 505.425 730.483 507.523C732.441 509.621 734.959 511.159 737.756 512.417C740.553 513.536 743.769 514.235 747.126 514.235C750.622 514.235 753.699 513.676 756.496 512.417C759.293 511.299 761.81 509.621 763.768 507.523C765.866 505.425 767.404 503.048 768.523 500.111C769.781 497.175 770.341 494.098 770.341 490.742Z" stroke="#6B50DC" stroke-width="5" stroke-miterlimit="10"/>
<path id="Vector_196" d="M887.955 536.749H865.16L841.385 490.322L841.805 536.749H818.31V444.315H840.966L864.181 491.161H864.46L864.041 444.455H887.816V513.816V536.749H887.955Z" stroke="#6B50DC" stroke-width="5" stroke-miterlimit="10"/>
<path id="Vector_197" d="M211.637 537.588L202.686 514.235H173.038L165.066 537.588H141.711L176.674 444.315H200.029L234.992 537.588H211.637ZM188.561 467.528L176.814 502.489H200.169L188.561 467.528Z" stroke="#6B50DC" stroke-width="5" stroke-miterlimit="10"/>
<path id="Vector_198" d="M686.43 609.467C684.472 607.089 682.095 605.271 679.018 603.873C675.942 602.475 673.005 601.775 670.208 601.775C668.809 601.775 667.271 601.915 665.732 602.195C664.194 602.475 662.935 602.894 661.677 603.593C660.418 604.293 659.439 605.271 658.6 606.39C657.761 607.509 657.341 608.907 657.341 610.725C657.341 612.263 657.621 613.522 658.32 614.501C659.02 615.48 659.859 616.319 661.117 617.158C662.376 617.857 663.914 618.556 665.593 619.256C667.271 619.815 669.229 620.514 671.466 621.213C674.543 622.192 677.76 623.311 681.116 624.569C684.472 625.828 687.549 627.366 690.346 629.464C693.143 631.422 695.381 633.939 697.199 636.875C699.017 639.812 699.856 643.588 699.856 647.923C699.856 652.957 698.877 657.432 696.919 661.208C694.961 664.983 692.304 668.06 689.088 670.437C685.871 672.814 682.095 674.632 677.899 675.891C673.704 677.01 669.369 677.709 664.893 677.709C658.32 677.709 652.027 676.59 645.874 674.353C639.72 672.115 634.686 669.039 630.63 664.843L645.174 650.58C647.412 653.237 650.349 655.474 653.985 657.292C657.621 659.11 661.257 659.949 664.893 659.949C666.572 659.949 668.11 659.809 669.648 659.39C671.187 659.11 672.585 658.551 673.704 657.712C674.823 657.012 675.802 655.894 676.501 654.635C677.2 653.377 677.48 651.838 677.48 650.16C677.48 648.482 677.06 647.084 676.221 645.965C675.382 644.846 674.124 643.728 672.585 642.749C671.047 641.77 668.949 640.931 666.572 640.092C664.194 639.253 661.537 638.414 658.46 637.575C655.523 636.596 652.726 635.617 649.929 634.358C647.132 633.1 644.615 631.561 642.377 629.464C640.14 627.506 638.462 625.129 637.063 622.332C635.665 619.535 635.105 616.179 635.105 612.124C635.105 607.229 636.084 603.034 638.182 599.398C640.28 595.902 642.937 592.966 646.293 590.728C649.65 588.491 653.426 586.813 657.621 585.834C661.817 584.855 666.152 584.295 670.487 584.295C675.662 584.295 680.976 585.274 686.291 587.092C691.745 588.91 696.36 591.707 700.415 595.203L686.43 609.467Z" stroke="#6B50DC" stroke-width="5" stroke-miterlimit="10"/>
<path id="Vector_199" d="M492.177 677.429L483.227 654.075H453.579L445.607 677.429H422.252L457.215 584.155H480.57L515.533 677.429H492.177ZM468.962 607.509L457.215 642.469H480.57L468.962 607.509Z" stroke="#6B50DC" stroke-width="5" stroke-miterlimit="10"/>
<g id="Group_4">
<path id="Vector_200" d="M379.877 647.364C379.877 643.169 378.619 640.232 376.241 638.694C373.724 637.016 370.507 636.316 366.451 636.316H356.802V659.53H366.591C368.13 659.53 369.668 659.39 371.206 658.971C372.745 658.691 374.283 657.992 375.542 657.153C376.8 656.314 377.919 655.055 378.758 653.517C379.458 651.979 379.877 649.881 379.877 647.364Z" stroke="#6B50DC" stroke-width="5" stroke-miterlimit="10"/>
<path id="Vector_201" d="M404.211 650.44C404.211 655.474 403.232 659.809 401.135 663.165C399.177 666.661 396.52 669.318 393.163 671.416C389.807 673.514 386.031 675.052 381.835 675.891C377.64 676.87 373.864 677.289 369.388 677.289H334.985V584.575H364.354C367.99 584.575 374.004 584.995 377.779 585.694C381.555 586.393 384.912 587.652 387.989 589.47C391.065 591.288 393.583 593.665 395.401 596.741C397.359 599.818 398.338 603.733 398.338 608.348C398.338 613.522 397.079 617.857 394.142 621.074C392.184 623.311 390.226 625.409 385.192 628.345V628.625C387.849 629.044 390.226 629.883 392.604 631.002C394.981 632.121 396.939 633.659 398.617 635.477C400.295 637.295 401.694 639.393 402.673 641.91C403.792 644.567 404.211 647.364 404.211 650.44Z" stroke="#6B50DC" stroke-width="5" stroke-miterlimit="10"/>
<path id="Vector_202" d="M375.402 610.446C375.402 607.23 374.423 605.132 372.465 603.874C370.507 602.615 367.85 602.056 364.494 602.056H356.662V619.396H364.633C365.892 619.396 367.151 619.256 368.409 618.976C369.668 618.697 370.927 618.277 371.906 617.578C373.025 616.879 373.864 616.04 374.423 614.781C375.122 613.802 375.402 612.264 375.402 610.446Z" stroke="#6B50DC" stroke-width="5" stroke-miterlimit="10"/>
</g>
<path id="Vector_203" d="M585.178 677.429L561.683 630.722L562.103 677.429H538.608V584.155H561.963L585.318 634.638V584.155H608.673V677.429H585.178Z" stroke="#6B50DC" stroke-width="5" stroke-miterlimit="10"/>
<path id="Vector_204" d="M479.871 396.77L470.92 373.416H441.272L433.3 396.77H409.945L444.908 303.496H468.263L503.226 396.77H479.871ZM456.655 326.849L444.908 361.81H468.263L456.655 326.849Z" stroke="#6B50DC" stroke-width="5" stroke-miterlimit="10"/>
<path id="Vector_205" d="M750.622 329.926C748.664 327.548 746.286 325.73 743.21 324.332C740.133 322.934 737.196 322.234 734.399 322.234C733.001 322.234 731.462 322.374 729.924 322.654C728.386 322.934 727.127 323.353 725.868 324.052C724.61 324.752 723.631 325.73 722.792 326.849C721.952 327.968 721.533 329.366 721.533 331.184C721.533 332.722 721.813 333.981 722.512 334.96C723.211 335.939 724.05 336.778 725.309 337.617C726.567 338.316 728.106 339.015 729.784 339.714C731.462 340.274 733.42 340.973 735.658 341.672C738.734 342.651 741.951 343.77 745.307 345.028C748.664 346.287 751.741 347.825 754.538 349.923C757.335 351.881 759.572 354.398 761.39 357.334C763.208 360.271 764.048 364.047 764.048 368.382C764.048 373.416 763.069 377.891 761.111 381.667C759.153 385.442 756.496 388.519 753.279 390.896C750.062 393.273 746.286 395.091 742.091 396.35C737.895 397.469 733.56 398.168 729.085 398.168C722.512 398.168 716.218 397.049 710.065 394.812C703.912 392.574 698.877 389.498 694.821 385.302L709.366 371.039C711.603 373.696 714.54 375.933 718.176 377.751C721.812 379.569 725.449 380.408 729.085 380.408C730.763 380.408 732.301 380.268 733.84 379.849C735.378 379.569 736.777 379.01 737.895 378.171C739.014 377.471 739.993 376.353 740.692 375.094C741.392 373.836 741.671 372.297 741.671 370.619C741.671 368.941 741.252 367.543 740.413 366.424C739.574 365.305 738.315 364.187 736.777 363.208C735.238 362.229 733.14 361.39 730.763 360.551C728.385 359.712 725.728 358.873 722.652 358.034C719.715 357.055 716.918 356.076 714.121 354.817C711.324 353.559 708.806 352.02 706.569 349.923C704.331 347.965 702.653 345.588 701.254 342.791C699.856 339.994 699.297 336.638 699.297 332.583C699.297 327.688 700.275 323.493 702.373 319.857C704.471 316.361 707.128 313.425 710.485 311.187C713.841 308.95 717.617 307.272 721.813 306.293C726.008 305.314 730.343 304.754 734.679 304.754C739.853 304.754 745.168 305.733 750.482 307.551C755.936 309.369 760.551 312.166 764.607 315.662L750.622 329.926Z" stroke="#6B50DC" stroke-width="5" stroke-miterlimit="10"/>
<path id="Vector_206" d="M606.715 373.555V303.635H676.641V326.988H630.07V338.595H653.426V361.948H630.07V373.555H676.641V396.908H606.715V373.555Z" stroke="#6B50DC" stroke-width="5" stroke-miterlimit="10"/>
<path id="Vector_207" d="M561.543 327.408V396.349H538.328V327.408H515.253V303.635H584.759V327.408H561.543Z" stroke="#6B50DC" stroke-width="5" stroke-miterlimit="10"/>
<path id="Vector_208" d="M290.652 328.947C288.694 326.569 286.317 324.751 283.24 323.353C280.164 321.955 277.227 321.255 274.43 321.255C273.031 321.255 271.493 321.395 269.954 321.675C268.416 321.955 267.157 322.374 265.899 323.073C264.64 323.773 263.661 324.751 262.822 325.87C261.983 326.989 261.563 328.387 261.563 330.205C261.563 331.743 261.843 333.002 262.542 333.981C263.242 334.96 264.081 335.799 265.339 336.638C266.598 337.337 268.136 338.036 269.815 338.735C271.493 339.295 273.451 339.994 275.688 340.693C278.765 341.672 281.982 342.791 285.338 344.049C288.694 345.308 291.771 346.846 294.568 348.944C297.365 350.902 299.603 353.419 301.421 356.355C303.239 359.292 304.078 363.068 304.078 367.403C304.078 372.437 303.099 376.912 301.141 380.688C299.183 384.463 296.526 387.54 293.309 389.917C290.093 392.294 286.317 394.112 282.121 395.371C277.926 396.49 273.591 397.189 269.115 397.189C262.542 397.189 256.249 396.07 250.096 393.833C243.942 391.595 238.907 388.519 234.852 384.323L249.396 370.06C251.634 372.717 254.571 374.954 258.207 376.772C261.843 378.59 265.479 379.429 269.115 379.429C270.793 379.429 272.332 379.289 273.87 378.87C275.409 378.59 276.807 378.031 277.926 377.192C279.045 376.492 280.024 375.374 280.723 374.115C281.422 372.857 281.702 371.318 281.702 369.64C281.702 367.962 281.282 366.564 280.443 365.445C279.604 364.326 278.345 363.208 276.807 362.229C275.269 361.25 273.171 360.411 270.793 359.572C268.416 358.733 265.759 357.894 262.682 357.055C259.745 356.076 256.948 355.097 254.151 353.838C251.354 352.58 248.837 351.041 246.599 348.944C244.362 346.986 242.683 344.609 241.285 341.812C239.886 339.015 239.327 335.659 239.327 331.604C239.327 326.709 240.306 322.514 242.404 318.878C244.502 315.382 247.159 312.446 250.515 310.208C253.872 307.971 257.648 306.293 261.843 305.314C266.039 304.335 270.374 303.775 274.709 303.775C279.884 303.775 285.198 304.754 290.512 306.572C295.967 308.39 300.582 311.187 304.637 314.683L290.652 328.947Z" stroke="#6B50DC" stroke-width="5" stroke-miterlimit="10"/>
<path id="Vector_209" d="M374.563 327.408V396.349H351.348V327.408H328.272V303.635H397.778V327.408H374.563Z" stroke="#6B50DC" stroke-width="5" stroke-miterlimit="10"/>
</g>
</g>
<g id="of">
<path id="Vector_210" d="M817.972 428.414C841.111 428.414 859.869 409.656 859.869 386.517C859.869 363.378 841.111 344.62 817.972 344.62C794.834 344.62 776.076 363.378 776.076 386.517C776.076 409.656 794.834 428.414 817.972 428.414Z" fill="#1C1246"/>
<g id="Group_5">
<path id="Vector_211" d="M797.44 386.378C797.44 384.713 797.718 383.187 798.273 381.939C798.828 380.551 799.66 379.441 800.631 378.609C801.602 377.638 802.851 376.944 804.238 376.528C805.625 375.973 807.151 375.834 808.816 375.834C810.481 375.834 812.007 376.112 813.394 376.528C814.781 377.083 816.03 377.777 817.001 378.609C817.972 379.58 818.805 380.69 819.36 381.939C819.914 383.326 820.192 384.713 820.192 386.378C820.192 388.043 819.914 389.569 819.36 390.817C818.805 392.205 817.972 393.315 817.001 394.286C816.03 395.257 814.781 395.951 813.394 396.505C812.007 397.06 810.481 397.338 808.816 397.338C807.151 397.338 805.625 397.06 804.238 396.505C802.851 395.951 801.602 395.257 800.631 394.286C799.66 393.315 798.828 392.205 798.273 390.817C797.718 389.569 797.44 388.043 797.44 386.378ZM804.793 386.378C804.793 387.072 804.932 387.627 805.07 388.182C805.209 388.737 805.487 389.291 805.903 389.569C806.319 389.846 806.735 390.263 807.151 390.54C807.706 390.818 808.261 390.817 808.816 390.817C809.371 390.817 809.926 390.679 810.481 390.54C811.036 390.263 811.452 389.985 811.729 389.569C812.146 389.153 812.423 388.737 812.562 388.182C812.701 387.627 812.839 387.072 812.839 386.378C812.839 385.684 812.701 385.129 812.562 384.575C812.423 384.02 812.007 383.603 811.729 383.187C811.313 382.771 810.897 382.494 810.481 382.355C809.926 382.077 809.51 382.077 808.816 382.077C808.122 382.077 807.706 382.216 807.151 382.355C806.596 382.632 806.18 382.91 805.903 383.187C805.625 383.465 805.209 384.02 805.07 384.575C804.793 385.129 804.793 385.684 804.793 386.378Z" fill="#FFFDF8"/>
<path id="Vector_212" d="M831.29 384.158H837.533V389.846H831.429V396.783H824.631V376.25H838.504V382.077H831.429V384.158H831.29Z" fill="#FFFDF8"/>
</g>
</g>
<g id="the">
<path id="Vector_213" d="M223.845 171.591C253.113 171.591 276.839 147.864 276.839 118.596C276.839 89.327 253.113 65.6001 223.845 65.6001C194.577 65.6001 170.85 89.327 170.85 118.596C170.85 147.864 194.577 171.591 223.845 171.591Z" fill="#1C1246"/>
<g id="Group_6">
<path id="Vector_214" d="M204.839 129.417H197.486V113.879H192.214V107.774H210.249V113.879H204.978V129.417H204.839Z" fill="#FFFDF8"/>
<path id="Vector_215" d="M227.174 121.231H221.209V129.417H213.856V107.774H221.07V115.127H227.036V107.774H234.388V129.555H227.036V121.231H227.174Z" fill="#FFFDF8"/>
<path id="Vector_216" d="M240.076 107.774H255.059V113.879H247.013V115.682H254.643V121.37H247.013V123.451H255.614V129.555H240.076V107.774Z" fill="#FFFDF8"/>
</g>
</g>
</g>
</svg>
