<svg width="100%" height="100%" viewBox="0 0 30 26" fill="none" xmlns="http://www.w3.org/2000/svg">
<path d="M23.5832 14.9968L28.2797 14.9968C28.7182 14.9968 29.0625 14.6526 29.0625 14.2141L29.0625 1.68978C29.0625 1.25127 28.7183 0.907008 28.2797 0.907008L23.5832 0.907009C23.1447 0.907009 22.8009 1.25125 22.8009 1.68978L22.8007 14.2135C22.8003 14.6523 23.1445 14.9965 23.5832 14.9965L23.5832 14.9968Z" fill="white"/>
<path d="M0.937659 13.5133C0.937659 14.7888 1.81345 16.0798 3.48614 16.0798L11.0694 16.0798C9.98611 18.0177 9.66743 20.7434 10.4206 22.7374C10.9737 24.2042 12.031 25.0603 13.3989 25.1473L13.4211 25.1491C14.3114 25.2037 15.0819 24.5368 15.156 23.6481C15.351 21.6701 16.2178 18.1713 17.4598 16.9291C18.5056 15.8833 19.4008 15.4451 20.8849 14.7196C21.0996 14.6144 21.3343 14.4998 21.5824 14.3761C21.578 14.3223 21.5751 14.2688 21.5751 14.2138L21.5751 1.81738C21.3961 1.75595 21.2192 1.69511 21.0454 1.63549C18.5962 0.791312 16.4796 0.0625348 13.2445 0.0625351L7.1139 0.0625356C5.44085 0.0625357 4.56542 1.3539 4.56542 2.62896C4.56542 3.00744 4.64216 3.38693 4.79424 3.73443C4.23707 3.83454 3.74921 4.10264 3.38789 4.51276C2.97778 4.97887 2.75177 5.59827 2.75177 6.25713C2.75177 6.6344 2.82852 7.0137 2.97999 7.36037C1.63686 7.59222 0.937523 8.74517 0.937523 9.88488C0.937524 10.5459 1.17299 11.2115 1.63248 11.6988C1.17382 12.1864 0.937938 12.8519 0.937938 13.513L0.937659 13.5133Z" fill="white"/>
</svg>
