<svg width="100%" height="100%" viewBox="0 0 30 26" fill="none" xmlns="http://www.w3.org/2000/svg">
<path d="M6.41677 10.3116H1.72027C1.28176 10.3116 0.9375 10.6558 0.9375 11.0944V23.6186C0.9375 24.0571 1.28174 24.4014 1.72027 24.4014H6.41677C6.85528 24.4014 7.19913 24.0572 7.19913 23.6186L7.19933 11.0949C7.19973 10.6562 6.85549 10.3119 6.41677 10.3119L6.41677 10.3116Z" fill="white"/>
<path d="M29.0623 11.7951C29.0623 10.5197 28.1865 9.22871 26.5139 9.22871H18.9306C20.0139 7.29077 20.3326 4.56505 19.5794 2.57106C19.0263 1.10427 17.969 0.248179 16.6011 0.161188L16.5789 0.159375C15.6886 0.104788 14.9181 0.771718 14.844 1.6604C14.649 3.63841 13.7822 7.1372 12.5402 8.37942C11.4944 9.42522 10.5992 9.86332 9.11513 10.5889C8.90041 10.6941 8.66575 10.8087 8.4176 10.9323C8.42203 10.9861 8.42485 11.0397 8.42485 11.0947V23.4911C8.60393 23.5525 8.78078 23.6134 8.95459 23.673C11.4038 24.5172 13.5204 25.2459 16.7555 25.2459H22.8861C24.5592 25.2459 25.4346 23.9546 25.4346 22.6795C25.4346 22.301 25.3578 21.9215 25.2058 21.574C25.7629 21.4739 26.2508 21.2058 26.6121 20.7957C27.0222 20.3296 27.2482 19.7102 27.2482 19.0513C27.2482 18.6741 27.1715 18.2948 27.02 17.9481C28.3631 17.7163 29.0625 16.5633 29.0625 15.4236C29.0625 14.7625 28.827 14.097 28.3675 13.6097C28.8262 13.1221 29.0621 12.4566 29.0621 11.7954L29.0623 11.7951Z" fill="white"/>
</svg>
