<svg width="100%" height="100%" viewBox="0 0 24 26" fill="none" xmlns="http://www.w3.org/2000/svg">
<path d="M12.8751 0C14.2501 0 15.7501 0.125 17.1251 0.125C17.1251 1.875 17.6251 3.5 18.7501 4.875C20.0001 6.25 21.6251 6.5 23.3751 6.5C23.3751 8 23.3751 9.5 23.3751 11C21.1251 11.125 19.0001 10.5 17.0001 9.375V9.5C17.0001 12.125 17.0001 14.625 17.0001 17.25C17.0001 19.125 16.5001 20.875 15.3751 22.375C14.2501 24 12.6251 25 10.7501 25.375C8.25006 25.875 5.87506 25.5 3.75006 23.875C2.12506 22.625 1.25006 21 0.87506 19C0.62506 17.5 0.62506 16 1.25006 14.5C2.37506 11.75 4.50006 10.125 7.37506 9.5C8.50006 9.25 9.25006 9.25 10.1251 9.375C10.2501 9.375 10.2501 9.5 10.2501 9.5C10.2501 10.875 10.2501 12.25 10.2501 13.5C10.2501 13.5 10.2501 13.5 10.2501 13.625C9.87506 13.625 9.62506 13.5 9.25006 13.5C7.25006 13.25 5.37506 14.75 5.12506 16.75C4.87506 18.5 5.62506 20.25 7.37506 21C9.00006 21.75 11.0001 21.25 12.1251 19.875C12.7501 19.125 12.8751 18.25 12.8751 17.375C12.8751 11.75 12.8751 6.25 12.8751 0.625C12.8751 0.375 12.8751 0.25 12.8751 0Z" fill="#34373E"/>
</svg>
