<svg width="100%" height="100%" viewBox="0 0 28 24" fill="none" xmlns="http://www.w3.org/2000/svg">
<path d="M27.75 0.749874C26.553 1.59422 25.2276 2.24001 23.825 2.66237C23.0722 1.79676 22.0717 1.18324 20.9588 0.904782C19.8459 0.626325 18.6744 0.696369 17.6026 1.10544C16.5308 1.51451 15.6106 2.24288 14.9662 3.19202C14.3219 4.14116 13.9846 5.2653 14 6.41237V7.66237C11.8033 7.71933 9.62659 7.23214 7.66376 6.24418C5.70093 5.25622 4.0129 3.79817 2.75 1.99987C2.75 1.99987 -2.25 13.2499 9 18.2499C6.42566 19.9973 3.35895 20.8735 0.25 20.7499C11.5 26.9999 25.25 20.7499 25.25 6.37487C25.2488 6.02669 25.2154 5.67937 25.15 5.33738C26.4258 4.07924 27.326 2.49077 27.75 0.749874Z" fill="#34373E"/>
</svg>
