<?xml version="1.0" encoding="utf-8"?>
<!-- Generator: Adobe Illustrator 24.3.0, SVG Export Plug-In . SVG Version: 6.00 Build 0)  -->
<svg version="1.1" id="PPFA-C3" xmlns="http://www.w3.org/2000/svg" xmlns:xlink="http://www.w3.org/1999/xlink" x="0px" y="0px"
	 viewBox="0 0 800 300" style="enable-background:new 0 0 800 300;" xml:space="preserve">
<g id="PPFA-tagline-only-c3">
	<path class="st0" d="M549.5,77c0-2.8-4.1-4.6-9.4-4.6c-8.2,0-10.8,3.3-10.8,15.2c0,13.1,2.7,15.5,11,15.5c3.1,0,6.2-0.5,9.2-1.4
		L549.5,77L549.5,77L549.5,77z M549.5,43.9h11.6v65.8c-5.2,2.1-14,3.5-20.8,3.5c-15.8,0-23-5.6-23-25.3c0-19.4,8-25.3,20.7-25.3
		c4-0.1,7.9,0.8,11.4,2.7L549.5,43.9L549.5,43.9L549.5,43.9z M557.9,198.9v-27.6c0-17.9-6.1-21.7-17.2-21.7c-4.6,0.1-9,1.2-13.1,3.3
		V131h-11.6v67.9h11.6v-34.5c0-2.8,4.4-4.2,9.2-4.2c7.5,0,9.6,4.2,9.6,12.1v26.6L557.9,198.9L557.9,198.9z M647.7,174.9
		c0-13.7-2.5-15.9-10.9-15.9c-8.1,0-10.7,2.2-10.7,15.9c0,13.3,2.5,15.9,10.7,15.9C645.2,190.8,647.7,188.2,647.7,174.9L647.7,174.9
		z M659.7,174.7c0,19.7-7.5,25.5-22.9,25.5c-15.2,0-22.7-5.8-22.7-25.5c0-19.6,7.6-25.1,22.7-25.1
		C652.1,149.6,659.7,155.2,659.7,174.7L659.7,174.7z M697,164.1c0-2.8-4.1-4.6-9.4-4.6c-8.2,0-10.8,3.3-10.8,15.2
		c0,13.1,2.7,15.5,11,15.5c3.1,0,6.2-0.5,9.2-1.4V164.1L697,164.1L697,164.1z M697,131h11.6v65.8c-5.1,2.1-14,3.5-20.8,3.5
		c-15.8,0-23-5.6-23-25.3c0-19.4,8-25.3,20.7-25.3c4-0.1,7.9,0.8,11.4,2.7L697,131L697,131L697,131z M575.4,174.9
		c0,13.3,2.5,15.9,10.7,15.9c8.3,0,10.9-2.6,10.9-15.9c0-13.7-2.5-15.9-10.9-15.9C577.9,159,575.4,161.2,575.4,174.9L575.4,174.9z
		 M563.4,174.7c0-19.6,7.6-25.1,22.7-25.1c15.3,0,22.9,5.6,22.9,25.1c0,19.7-7.5,25.5-22.9,25.5
		C570.9,200.2,563.4,194.4,563.4,174.7L563.4,174.7z M733.5,139.8c0-4-2.5-6.6-6.2-6.6c-3.7,0-6.3,2.5-6.3,6.6s2.5,6.6,6.3,6.6
		C731,146.3,733.5,143.8,733.5,139.8L733.5,139.8z M736.1,139.8c0,4.9-4,8.8-8.9,8.8c-4.9,0-8.8-4-8.8-8.9c0-4.9,4-8.8,8.8-8.8
		C732.1,130.9,736.1,134.9,736.1,139.8L736.1,139.8z M729.1,137.8c0-1.1-1-1.2-1.8-1.2h-1.4v2.4h1.6
		C728.4,139,729.1,138.9,729.1,137.8L729.1,137.8L729.1,137.8z M728.8,140.7l2.4,4h-2.3l-2.2-3.9h-0.8v3.9h-2.2v-9.7h3.8
		c2.5,0,3.7,1.1,3.7,3C731.3,139.4,730.2,140.6,728.8,140.7C728.8,140.7,728.8,140.7,728.8,140.7L728.8,140.7L728.8,140.7z
		 M343.4,89.8c-6.6,0-8.9,0.7-8.9,6.9c0,6.5,1.8,7.5,8.8,7.5c3.3,0,6.5-0.6,9.6-1.6v-12C349.7,90,346.5,89.8,343.4,89.8L343.4,89.8
		L343.4,89.8z M341,81.4c4,0,7.9,0.5,11.8,1.3c0-8.4-2-10.4-11.9-10.4c-4.9,0-9.8,0.8-14.4,2.4l-2.2-9.6c6.2-1.6,12.6-2.5,19-2.5
		c14.1,0,20.6,4.3,20.6,18.6v28.2c-6.9,2.4-14.2,3.7-21.6,3.8c-15.1,0-20.2-3.5-20.2-16C322.3,83.6,329.9,81.4,341,81.4L341,81.4
		L341,81.4z M317.6,109.7c-2.5-3.2-3.8-7.2-3.7-11.3V43.9h-11.6v55c0,7,1.8,11.5,5.1,15.2L317.6,109.7L317.6,109.7L317.6,109.7z
		 M201.4,46.2H139c-41.5,0.1-75.1,33.8-75,75.4v133.7h21.4V121.6c0-29.6,23.9-53.7,53.6-53.8h41v44h-33.3
		c-26.7,0.1-48.3,21.7-48.3,48.4c0,0,0,0,0,0v95h21.4v-95c0-14.8,12-26.9,26.8-26.9h54.7v56.8c0,14.8-12,26.9-26.8,26.9h-39.8
		l-9.4,21.5h49.2c26.7-0.1,48.3-21.7,48.2-48.4c0,0,0,0,0,0v-78.3h-21.4L201.4,46.2L201.4,46.2L201.4,46.2z M256.7,166.9h18.2
		c5.2,0,8.1-3.8,8.1-11.2c0-8-2.7-11.9-7.8-11.9h-18.5V166.9L256.7,166.9z M256.7,198.9h-12.4v-65.6h34c13.8,0,18.2,9.7,18.2,22.5
		c0,11.3-5.3,21.5-17.9,21.5h-21.9V198.9L256.7,198.9L256.7,198.9z M382.8,74.2c2.8-0.8,5.7-1.1,8.5-1.1c8.2,0,10.2,2.6,10.2,13.3
		v25.5h11.6V85.1c0-17.2-6-22.6-19.4-22.6c-7.7,0.1-15.3,1.5-22.6,4.1v45.2h11.6V74.2L382.8,74.2z M256.7,79.8h18.2
		c5.2,0,8.1-3.8,8.1-11.2c0-8-2.7-11.9-7.8-11.9h-18.5V79.8L256.7,79.8z M256.7,111.8h-12.4V46.2h34c13.8,0,18.2,9.7,18.2,22.5
		c0,11.3-5.3,21.5-17.9,21.5h-21.9V111.8L256.7,111.8L256.7,111.8z M432,74.2c2.8-0.8,5.6-1.1,8.5-1.1c8.2,0,10.2,2.6,10.2,13.3
		v25.5h11.6V85.1c0-17.2-6-22.6-19.4-22.6c-7.7,0.1-15.3,1.5-22.6,4.1v45.2H432V74.2L432,74.2L432,74.2z M481.2,82h20.1
		c-0.4-8.5-2.8-10.3-9.5-10.3C484.4,71.7,481.9,74.1,481.2,82L481.2,82z M468.9,87.6c0-19.2,8.3-25.1,22.2-25.1
		c15.1,0,21.7,5.2,20.8,28.4h-30.8c0.1,10.2,4,12.3,12.4,12.3c4.5-0.1,9-0.8,13.4-2l1.9,9.2c-5.4,1.7-11,2.5-16.7,2.6
		C478.3,113.1,468.9,107.3,468.9,87.6L468.9,87.6L468.9,87.6z M498.7,200.2c4.5,0,8.9-0.8,13.1-2.2l-2.1-9.2
		c-2.6,0.9-5.4,1.3-8.2,1.3c-5.6,0-7.2-2.4-7.2-8.4v-20.6h15.8V151h-15.8v-12.9l-11.6,4.8v8.1h-8v10.2h8v21.6
		C482.7,197,488,200.2,498.7,200.2L498.7,200.2L498.7,200.2z M392.2,169.1h20c-0.4-8.5-2.8-10.3-9.5-10.3
		C395.5,158.8,392.9,161.2,392.2,169.1L392.2,169.1L392.2,169.1z M419.7,197.6c-5.4,1.7-11,2.5-16.7,2.6c-13.8,0-23.1-5.8-23.1-25.5
		c0-19.2,8.3-25.1,22.2-25.1c15.1,0,21.7,5.2,20.8,28.4h-30.8c0.1,10.3,4,12.3,12.4,12.3c4.5-0.1,9-0.8,13.4-2L419.7,197.6
		L419.7,197.6L419.7,197.6z M451.6,149.6c-7.7,0.1-15.3,1.5-22.6,4.1v45.2h11.6v-37.7c2.8-0.8,5.6-1.1,8.5-1.1
		c8.2,0,10.2,2.6,10.2,13.3v25.5H471v-26.7C471,155,465,149.6,451.6,149.6L451.6,149.6L451.6,149.6z M321.4,191.3
		c3.3,0,6.5-0.6,9.6-1.6v-11.9c-3.1-0.6-6.3-0.9-9.5-0.8c-6.6,0-8.9,0.7-8.9,6.9C312.6,190.2,314.4,191.3,321.4,191.3L321.4,191.3
		L321.4,191.3z M320.6,200.2c-15.1,0-20.2-3.5-20.2-16c0-13.6,7.6-15.7,18.7-15.7c4,0,7.9,0.5,11.8,1.3c0-8.4-2-10.4-11.9-10.4
		c-4.9,0-9.8,0.8-14.4,2.4l-2.2-9.6c6.2-1.6,12.6-2.5,19-2.5c14.1,0,20.6,4.3,20.6,18.6v28.2C335.2,198.9,327.9,200.2,320.6,200.2
		L320.6,200.2L320.6,200.2z M378,149.9c-1.6-0.2-3.2-0.3-4.9-0.3c-6.8,0-10.5,2.4-12.2,5V151h-11.6v47.9H361v-33.2
		c0-3.5,5.2-5.4,11-5.4c2,0,4.1,0.2,6.1,0.7L378,149.9L378,149.9L378,149.9z M539.6,241.7c-0.5-4.2-3.2-6.5-6.6-6.5
		c-3.3,0-6.3,2.4-6.9,6.5H539.6L539.6,241.7z M543.4,244.5v0.6H526c0.3,4.7,3.8,7.3,7,7.3c2.7,0.1,5.2-1.5,6.1-4.1h3.8
		c-1.8,5.5-6,7.7-9.8,7.7c-7.4,0-11-5.6-11-12.3c0-6.6,3.6-12.3,11-12.3C538.2,231.5,543.4,235,543.4,244.5L543.4,244.5L543.4,244.5
		z M550,236.5L550,236.5l-0.1-4.2h-3.6v22.9h3.6v-11.6c0-5,2.5-7.5,6.1-7.5c0.9,0,1.7,0.2,2.6,0.4v-4.7c-0.7-0.2-1.4-0.3-2.1-0.3
		C554.1,231.5,551.7,232.9,550,236.5L550,236.5L550,236.5z M662.2,255.3h4.5v-5.1h-4.5V255.3L662.2,255.3z M590.9,249.8L590.9,249.8
		l-4.9-17.5h-4l-4.7,17.5h-0.1l-5.3-17.5h-4l7.3,22.9h3.8l4.7-17.5h0.1l4.7,17.5h3.9l7.5-22.9h-3.8L590.9,249.8L590.9,249.8
		L590.9,249.8z M613.4,231.5c-3.1-0.1-6,1.5-7.4,4.2h-0.1v-12h-3.6v31.5h3.6V242c0-4.5,2.9-6.8,6.2-6.8c3.9,0,5.6,1.9,5.6,5.3v14.8
		h3.6v-15.6C621.3,233.9,617.9,231.5,613.4,231.5L613.4,231.5L613.4,231.5z M640.1,243.3c-0.5,0.7-1.5,1-3.5,1.4l-4.1,0.6
		c-2.8,0.4-4.3,1.4-4.3,3.8c0,2.1,1.8,3.6,4.4,3.6c4.1,0,7.5-2.6,7.5-6.4V243.3L640.1,243.3L640.1,243.3z M645.1,252.4
		c0.4,0,0.8-0.1,1.3-0.2v3.1c-0.9,0.2-1.9,0.3-2.8,0.3c-1.8,0-3-0.6-3.3-3.2c-1.5,2.4-5,3.7-8.1,3.7c-6.3,0-7.7-3.9-7.7-6.9
		c0-4.2,2.1-6.3,8.1-7.1l4.1-0.5c2-0.3,3.3-0.7,3.3-2.8c0-3.1-2.5-3.8-5.5-3.8c-3.1,0-5.8,1-5.9,4.6h-3.4c0.5-5.7,3.7-8,9.4-8
		c3.9,0,8.7,1.2,8.7,6.5v12.3C643.5,251.8,644,252.4,645.1,252.4L645.1,252.4L645.1,252.4z M653,225.3h-3.6v7h-3.9v3.4h3.9v14.9
		c0,3.3,1.4,5.4,5,5.4c1.4,0,2.7-0.1,4.1-0.3v-3.7c-0.8,0.2-1.7,0.3-2.5,0.3c-1.8,0-2.9-0.7-2.9-2.5v-14.1h5.4v-3.4H653L653,225.3
		L653,225.3L653,225.3z M515.2,225.3h-3.6v7h-3.9v3.4h3.9v14.9c0,3.3,1.5,5.4,5,5.4c1.4,0,2.7-0.1,4.1-0.3v-3.7
		c-0.8,0.2-1.7,0.3-2.5,0.3c-1.8,0-2.9-0.7-2.9-2.5v-14.1h5.4v-3.4h-5.4L515.2,225.3L515.2,225.3L515.2,225.3z M259.2,250.2
		c-6.7,0-8.1-6.3-8.1-10.6c0-4.2,1.4-10.5,8.1-10.5c3.7,0,6.8,2.2,7.5,6.7h7.6c-1.1-10.8-9.1-12.7-15.3-12.7
		c-9.5,0-15.4,4.9-15.4,16.5c0,11.6,5.9,16.5,15.4,16.5c8.3,0,14.5-3.8,15.4-12.9h-7.7C265.9,248.2,262.6,250.2,259.2,250.2
		L259.2,250.2L259.2,250.2z M341.2,240.9c-0.3-3.1-3-5.4-6.1-5.2c-3.1-0.1-5.7,2.2-6.1,5.2v0.1L341.2,240.9L341.2,240.9L341.2,240.9
		L341.2,240.9z M347.9,244.9v0.7H329v0.1c0.2,3.3,3,5.8,6.2,5.6c0,0,0,0,0,0c2.6,0,4.4-1.1,5.3-3.1h6.9c-1.9,5.6-6.3,7.9-12.2,7.9
		c-7.7,0-12.9-3.8-12.9-12.6s5.2-12.6,12.9-12.6C343.8,230.9,347.9,236,347.9,244.9L347.9,244.9L347.9,244.9z M421.3,243.8
		c0-4.2-1.9-8.6-7.2-8.6c-5.2,0-7.2,4.4-7.2,8.6s1.9,8.6,7.2,8.6C419.4,252.4,421.3,247.9,421.3,243.8L421.3,243.8z M425.2,243.8
		c0,6.6-3.6,12.3-11,12.3c-7.4,0-11-5.6-11-12.3c0-6.6,3.6-12.3,11-12.3C421.5,231.5,425.2,237.2,425.2,243.8L425.2,243.8
		L425.2,243.8z M396.1,248.9L396.1,248.9L379.4,224H375v31.3h3.8v-24.9h0.1l16.6,24.9h4.5V224h-3.8L396.1,248.9L396.1,248.9
		L396.1,248.9z M463.5,231.5c-3.1-0.1-6.1,1.5-7.7,4.2c-1.1-2.6-3.6-4.2-6.4-4.2c-3.1-0.1-6,1.5-7.4,4.2h-0.1v-3.5h-3.6v22.9h3.6
		V242c0-4.5,2.9-6.8,6.2-6.8c2.4,0,4.6,1.3,4.6,5.5v14.6h3.6v-13.9c0-4.3,2.9-6.2,6.2-6.2c2.4,0,4.6,1.3,4.6,5.5v14.6h3.6v-15.6
		C470.7,232.6,465.4,231.5,463.5,231.5L463.5,231.5L463.5,231.5z M489.3,243.3c-0.5,0.7-1.5,1-3.5,1.4l-4.1,0.6
		c-2.8,0.4-4.3,1.4-4.3,3.8c0,2.1,1.8,3.6,4.4,3.6c4.1,0,7.5-2.6,7.5-6.4L489.3,243.3L489.3,243.3L489.3,243.3z M494.4,252.4
		c0.4,0,0.9-0.1,1.3-0.2v3.1c-0.9,0.2-1.9,0.3-2.8,0.3c-1.8,0-3-0.6-3.3-3.2c-1.5,2.4-5,3.7-8.1,3.7c-6.3,0-7.7-3.9-7.7-6.9
		c0-4.2,2.1-6.3,8.1-7.1l4.1-0.5c2-0.3,3.3-0.7,3.3-2.8c0-3.1-2.5-3.8-5.5-3.8c-3.1,0-5.8,1-5.9,4.6h-3.4c0.5-5.7,3.7-8,9.4-8
		c3.9,0,8.7,1.2,8.7,6.5v12.3C492.7,251.8,493.2,252.4,494.4,252.4L494.4,252.4L494.4,252.4z M294.1,243.8c-1.2,0.6-2.5,1-3.8,1
		l-3.7,0.4c-2.3,0.2-3.4,1-3.4,3.1c0,2.1,1.6,3.3,4.1,3.3c3.2,0,6.9-1.9,6.9-5.8L294.1,243.8L294.1,243.8L294.1,243.8z M300.3,250.5
		c0,1.6,0.2,3.2,0.7,4.7h-6.4c-0.2-0.8-0.4-1.7-0.4-2.5c-2.2,2.6-6.3,3.4-9.2,3.4c-5.1,0-8.7-2.1-8.7-7.6c0-5.7,4.2-6.9,8.1-7.2
		l6.8-0.6c2-0.2,2.6-0.6,2.6-2.4c0-1.9-1.3-2.8-5-2.8c-2.7,0-4.2,0.3-5.1,3.5h-6.2c0.8-7.2,6.3-8.1,11.6-8.1c9.2,0,11.2,3.6,11.2,8
		L300.3,250.5L300.3,250.5L300.3,250.5z M310.8,236.4L310.8,236.4l-0.1-4.6h-6.2v23.5h6.4v-10.1c0-4.6,2.1-7.2,6.5-7.2
		c1.2,0,2.4,0.3,3.5,0.7v-7.2c-0.8-0.2-1.6-0.2-2.3-0.2C314.9,231.2,313.1,232.8,310.8,236.4L310.8,236.4L310.8,236.4z M501.9,225.3
		h-3.6v7h-3.9v3.4h3.9v14.9c0,3.3,1.4,5.4,5,5.4c1.4,0,2.7-0.1,4.1-0.3v-3.7c-0.8,0.2-1.7,0.3-2.5,0.3c-1.8,0-2.9-0.7-2.9-2.5v-14.1
		h5.4v-3.4h-5.4L501.9,225.3L501.9,225.3L501.9,225.3z M352.2,247.8h7.1v7.4h-7.1L352.2,247.8L352.2,247.8L352.2,247.8z"/>
</g>
</svg>
